<svg xmlns="http://www.w3.org/2000/svg" xmlns:xlink="http://www.w3.org/1999/xlink" width="259" zoomAndPan="magnify" viewBox="0 0 194.25 56.249996" height="75" preserveAspectRatio="xMidYMid meet" version="1.0"><defs><g/><clipPath id="1816187fa7"><path d="M 93.234375 35.269531 L 100.210938 35.269531 L 100.210938 42.25 L 93.234375 42.25 Z M 93.234375 35.269531 " clip-rule="nonzero"/></clipPath><clipPath id="c8961c3877"><path d="M 96.722656 35.269531 L 100.210938 38.757812 L 96.722656 42.25 L 93.234375 38.757812 Z M 96.722656 35.269531 " clip-rule="nonzero"/></clipPath></defs><path stroke-linecap="butt" transform="matrix(0.740131, 0, 0, 0.740131, 15.879019, 38.388696)" fill="none" stroke-linejoin="miter" d="M -0.000152778 0.498717 L 98.741802 0.498717 " stroke="#000000" stroke-width="1" stroke-opacity="1" stroke-miterlimit="4"/><path stroke-linecap="butt" transform="matrix(0.740131, 0, 0, 0.740131, 103.688807, 38.758762)" fill="none" stroke-linejoin="miter" d="M -0.00176536 0.500106 L 98.74019 0.500106 " stroke="#000000" stroke-width="1" stroke-opacity="1" stroke-miterlimit="4"/><g clip-path="url(#1816187fa7)"><g clip-path="url(#c8961c3877)"><path fill="#cb6ce6" d="M 93.234375 35.269531 L 100.210938 35.269531 L 100.210938 42.25 L 93.234375 42.25 Z M 93.234375 35.269531 " fill-opacity="1" fill-rule="nonzero"/></g></g><g fill="#000000" fill-opacity="1"><g transform="translate(24.36587, 51.774272)"><g><path d="M 3.703125 -3.546875 C 3.703125 -3.066406 3.535156 -2.695312 3.203125 -2.4375 C 2.878906 -2.1875 2.421875 -2.0625 1.828125 -2.0625 L 1.046875 -2.0625 L 1.046875 0 L 0.703125 0 L 0.703125 -4.984375 L 1.921875 -4.984375 C 3.109375 -4.984375 3.703125 -4.503906 3.703125 -3.546875 Z M 1.046875 -2.359375 L 1.734375 -2.359375 C 2.296875 -2.359375 2.703125 -2.453125 2.953125 -2.640625 C 3.203125 -2.828125 3.328125 -3.128906 3.328125 -3.546875 C 3.328125 -3.921875 3.207031 -4.203125 2.96875 -4.390625 C 2.738281 -4.578125 2.375 -4.671875 1.875 -4.671875 L 1.046875 -4.671875 Z M 1.046875 -2.359375 "/></g></g></g><g fill="#000000" fill-opacity="1"><g transform="translate(30.543434, 51.774272)"><g><path d="M 4.375 -4.984375 L 4.375 -1.765625 C 4.375 -1.191406 4.207031 -0.742188 3.875 -0.421875 C 3.539062 -0.0976562 3.078125 0.0625 2.484375 0.0625 C 1.910156 0.0625 1.457031 -0.0976562 1.125 -0.421875 C 0.800781 -0.742188 0.640625 -1.191406 0.640625 -1.765625 L 0.640625 -4.984375 L 1 -4.984375 L 1 -1.765625 C 1 -1.285156 1.128906 -0.910156 1.390625 -0.640625 C 1.660156 -0.367188 2.039062 -0.234375 2.53125 -0.234375 C 3 -0.234375 3.363281 -0.363281 3.625 -0.625 C 3.894531 -0.894531 4.03125 -1.257812 4.03125 -1.71875 L 4.03125 -4.984375 Z M 4.375 -4.984375 "/></g></g></g><g fill="#000000" fill-opacity="1"><g transform="translate(37.659276, 51.774272)"><g><path d="M 0.703125 -4.984375 L 2.078125 -4.984375 C 2.691406 -4.984375 3.140625 -4.878906 3.421875 -4.671875 C 3.710938 -4.460938 3.859375 -4.144531 3.859375 -3.71875 C 3.859375 -3.4375 3.769531 -3.195312 3.59375 -3 C 3.414062 -2.8125 3.160156 -2.6875 2.828125 -2.625 L 2.828125 -2.609375 C 3.222656 -2.554688 3.515625 -2.429688 3.703125 -2.234375 C 3.890625 -2.046875 3.984375 -1.78125 3.984375 -1.4375 C 3.984375 -0.976562 3.832031 -0.625 3.53125 -0.375 C 3.226562 -0.125 2.796875 0 2.234375 0 L 0.703125 0 Z M 1.046875 -2.765625 L 2.15625 -2.765625 C 2.625 -2.765625 2.960938 -2.84375 3.171875 -3 C 3.390625 -3.15625 3.5 -3.398438 3.5 -3.734375 C 3.5 -4.066406 3.375 -4.304688 3.125 -4.453125 C 2.882812 -4.597656 2.53125 -4.671875 2.0625 -4.671875 L 1.046875 -4.671875 Z M 1.046875 -2.453125 L 1.046875 -0.3125 L 2.234375 -0.3125 C 3.148438 -0.3125 3.609375 -0.6875 3.609375 -1.4375 C 3.609375 -2.113281 3.125 -2.453125 2.15625 -2.453125 Z M 1.046875 -2.453125 "/></g></g></g><g fill="#000000" fill-opacity="1"><g transform="translate(44.130264, 51.774272)"><g><path d="M 0.703125 0 L 0.703125 -4.984375 L 1.046875 -4.984375 L 1.046875 -0.328125 L 3.4375 -0.328125 L 3.4375 0 Z M 0.703125 0 "/></g></g></g><g fill="#000000" fill-opacity="1"><g transform="translate(49.806281, 51.774272)"><g><path d="M 0.703125 0 L 0.703125 -4.984375 L 1.046875 -4.984375 L 1.046875 0 Z M 0.703125 0 "/></g></g></g><g fill="#000000" fill-opacity="1"><g transform="translate(53.656924, 51.774272)"><g><path d="M 3.453125 -1.28125 C 3.453125 -0.863281 3.300781 -0.535156 3 -0.296875 C 2.695312 -0.0546875 2.289062 0.0625 1.78125 0.0625 C 1.164062 0.0625 0.695312 -0.00390625 0.375 -0.140625 L 0.375 -0.484375 C 0.738281 -0.328125 1.195312 -0.25 1.75 -0.25 C 2.15625 -0.25 2.476562 -0.34375 2.71875 -0.53125 C 2.96875 -0.71875 3.09375 -0.960938 3.09375 -1.265625 C 3.09375 -1.460938 3.050781 -1.617188 2.96875 -1.734375 C 2.882812 -1.859375 2.753906 -1.972656 2.578125 -2.078125 C 2.398438 -2.179688 2.132812 -2.289062 1.78125 -2.40625 C 1.269531 -2.582031 0.914062 -2.769531 0.71875 -2.96875 C 0.53125 -3.175781 0.4375 -3.453125 0.4375 -3.796875 C 0.4375 -4.171875 0.582031 -4.472656 0.875 -4.703125 C 1.164062 -4.941406 1.539062 -5.0625 2 -5.0625 C 2.46875 -5.0625 2.910156 -4.972656 3.328125 -4.796875 L 3.203125 -4.484375 C 2.785156 -4.660156 2.390625 -4.75 2.015625 -4.75 C 1.640625 -4.75 1.34375 -4.660156 1.125 -4.484375 C 0.914062 -4.316406 0.8125 -4.085938 0.8125 -3.796875 C 0.8125 -3.609375 0.84375 -3.457031 0.90625 -3.34375 C 0.96875 -3.226562 1.078125 -3.125 1.234375 -3.03125 C 1.390625 -2.9375 1.648438 -2.820312 2.015625 -2.6875 C 2.410156 -2.550781 2.703125 -2.421875 2.890625 -2.296875 C 3.085938 -2.171875 3.226562 -2.023438 3.3125 -1.859375 C 3.40625 -1.703125 3.453125 -1.507812 3.453125 -1.28125 Z M 3.453125 -1.28125 "/></g></g></g><g fill="#000000" fill-opacity="1"><g transform="translate(59.554712, 51.774272)"><g><path d="M 4.3125 0 L 3.96875 0 L 3.96875 -2.453125 L 1.046875 -2.453125 L 1.046875 0 L 0.703125 0 L 0.703125 -4.984375 L 1.046875 -4.984375 L 1.046875 -2.765625 L 3.96875 -2.765625 L 3.96875 -4.984375 L 4.3125 -4.984375 Z M 4.3125 0 "/></g></g></g><g fill="#000000" fill-opacity="1"><g transform="translate(66.670554, 51.774272)"><g><path d="M 3.4375 0 L 0.703125 0 L 0.703125 -4.984375 L 3.4375 -4.984375 L 3.4375 -4.671875 L 1.046875 -4.671875 L 1.046875 -2.78125 L 3.296875 -2.78125 L 3.296875 -2.453125 L 1.046875 -2.453125 L 1.046875 -0.328125 L 3.4375 -0.328125 Z M 3.4375 0 "/></g></g></g><g fill="#000000" fill-opacity="1"><g transform="translate(72.616108, 51.774272)"><g><path d="M 1.046875 -2.171875 L 1.046875 0 L 0.703125 0 L 0.703125 -4.984375 L 1.890625 -4.984375 C 2.515625 -4.984375 2.972656 -4.867188 3.265625 -4.640625 C 3.554688 -4.410156 3.703125 -4.066406 3.703125 -3.609375 C 3.703125 -3.273438 3.613281 -2.992188 3.4375 -2.765625 C 3.257812 -2.535156 2.992188 -2.367188 2.640625 -2.265625 L 4 0 L 3.578125 0 L 2.296875 -2.171875 Z M 1.046875 -2.46875 L 2 -2.46875 C 2.425781 -2.46875 2.753906 -2.5625 2.984375 -2.75 C 3.210938 -2.9375 3.328125 -3.210938 3.328125 -3.578125 C 3.328125 -3.960938 3.210938 -4.238281 2.984375 -4.40625 C 2.765625 -4.582031 2.394531 -4.671875 1.875 -4.671875 L 1.046875 -4.671875 Z M 1.046875 -2.46875 "/></g></g></g><g fill="#000000" fill-opacity="1"><g transform="translate(78.858502, 51.774272)"><g><path d="M 3.453125 -1.28125 C 3.453125 -0.863281 3.300781 -0.535156 3 -0.296875 C 2.695312 -0.0546875 2.289062 0.0625 1.78125 0.0625 C 1.164062 0.0625 0.695312 -0.00390625 0.375 -0.140625 L 0.375 -0.484375 C 0.738281 -0.328125 1.195312 -0.25 1.75 -0.25 C 2.15625 -0.25 2.476562 -0.34375 2.71875 -0.53125 C 2.96875 -0.71875 3.09375 -0.960938 3.09375 -1.265625 C 3.09375 -1.460938 3.050781 -1.617188 2.96875 -1.734375 C 2.882812 -1.859375 2.753906 -1.972656 2.578125 -2.078125 C 2.398438 -2.179688 2.132812 -2.289062 1.78125 -2.40625 C 1.269531 -2.582031 0.914062 -2.769531 0.71875 -2.96875 C 0.53125 -3.175781 0.4375 -3.453125 0.4375 -3.796875 C 0.4375 -4.171875 0.582031 -4.472656 0.875 -4.703125 C 1.164062 -4.941406 1.539062 -5.0625 2 -5.0625 C 2.46875 -5.0625 2.910156 -4.972656 3.328125 -4.796875 L 3.203125 -4.484375 C 2.785156 -4.660156 2.390625 -4.75 2.015625 -4.75 C 1.640625 -4.75 1.34375 -4.660156 1.125 -4.484375 C 0.914062 -4.316406 0.8125 -4.085938 0.8125 -3.796875 C 0.8125 -3.609375 0.84375 -3.457031 0.90625 -3.34375 C 0.96875 -3.226562 1.078125 -3.125 1.234375 -3.03125 C 1.390625 -2.9375 1.648438 -2.820312 2.015625 -2.6875 C 2.410156 -2.550781 2.703125 -2.421875 2.890625 -2.296875 C 3.085938 -2.171875 3.226562 -2.023438 3.3125 -1.859375 C 3.40625 -1.703125 3.453125 -1.507812 3.453125 -1.28125 Z M 3.453125 -1.28125 "/></g></g></g><g fill="#000000" fill-opacity="1"><g transform="translate(84.75629, 51.774272)"><g/></g></g><g fill="#000000" fill-opacity="1"><g transform="translate(88.661523, 51.774272)"><g><path d="M 0.421875 -1.265625 C 0.421875 -1.578125 0.503906 -1.84375 0.671875 -2.0625 C 0.835938 -2.28125 1.148438 -2.515625 1.609375 -2.765625 L 1.34375 -3.046875 C 1.195312 -3.203125 1.085938 -3.359375 1.015625 -3.515625 C 0.941406 -3.671875 0.90625 -3.832031 0.90625 -4 C 0.90625 -4.320312 1.015625 -4.578125 1.234375 -4.765625 C 1.453125 -4.960938 1.742188 -5.0625 2.109375 -5.0625 C 2.460938 -5.0625 2.738281 -4.96875 2.9375 -4.78125 C 3.144531 -4.601562 3.25 -4.351562 3.25 -4.03125 C 3.25 -3.789062 3.171875 -3.566406 3.015625 -3.359375 C 2.859375 -3.160156 2.570312 -2.941406 2.15625 -2.703125 L 3.6875 -1.140625 C 3.832031 -1.304688 3.953125 -1.484375 4.046875 -1.671875 C 4.140625 -1.867188 4.222656 -2.097656 4.296875 -2.359375 L 4.625 -2.359375 C 4.488281 -1.804688 4.253906 -1.320312 3.921875 -0.90625 L 4.828125 0 L 4.359375 0 L 3.703125 -0.671875 C 3.492188 -0.460938 3.304688 -0.3125 3.140625 -0.21875 C 2.984375 -0.125 2.804688 -0.0507812 2.609375 0 C 2.410156 0.0390625 2.191406 0.0625 1.953125 0.0625 C 1.472656 0.0625 1.097656 -0.0507812 0.828125 -0.28125 C 0.554688 -0.519531 0.421875 -0.847656 0.421875 -1.265625 Z M 1.96875 -0.234375 C 2.257812 -0.234375 2.523438 -0.28125 2.765625 -0.375 C 3.015625 -0.476562 3.253906 -0.648438 3.484375 -0.890625 L 1.84375 -2.546875 C 1.53125 -2.378906 1.304688 -2.238281 1.171875 -2.125 C 1.035156 -2.007812 0.9375 -1.882812 0.875 -1.75 C 0.8125 -1.613281 0.78125 -1.457031 0.78125 -1.28125 C 0.78125 -0.957031 0.882812 -0.703125 1.09375 -0.515625 C 1.300781 -0.328125 1.59375 -0.234375 1.96875 -0.234375 Z M 1.265625 -4.015625 C 1.265625 -3.828125 1.3125 -3.65625 1.40625 -3.5 C 1.5 -3.351562 1.671875 -3.160156 1.921875 -2.921875 C 2.285156 -3.109375 2.535156 -3.285156 2.671875 -3.453125 C 2.816406 -3.628906 2.890625 -3.820312 2.890625 -4.03125 C 2.890625 -4.25 2.816406 -4.421875 2.671875 -4.546875 C 2.535156 -4.679688 2.347656 -4.75 2.109375 -4.75 C 1.847656 -4.75 1.640625 -4.679688 1.484375 -4.546875 C 1.335938 -4.421875 1.265625 -4.242188 1.265625 -4.015625 Z M 1.265625 -4.015625 "/></g></g></g><g fill="#000000" fill-opacity="1"><g transform="translate(95.733007, 51.774272)"><g/></g></g><g fill="#000000" fill-opacity="1"><g transform="translate(99.638244, 51.774272)"><g><path d="M 4.484375 -2.546875 C 4.484375 -1.703125 4.265625 -1.066406 3.828125 -0.640625 C 3.390625 -0.210938 2.75 0 1.90625 0 L 0.703125 0 L 0.703125 -4.984375 L 2.046875 -4.984375 C 2.847656 -4.984375 3.453125 -4.773438 3.859375 -4.359375 C 4.273438 -3.941406 4.484375 -3.335938 4.484375 -2.546875 Z M 4.109375 -2.53125 C 4.109375 -3.238281 3.925781 -3.769531 3.5625 -4.125 C 3.207031 -4.488281 2.675781 -4.671875 1.96875 -4.671875 L 1.046875 -4.671875 L 1.046875 -0.3125 L 1.875 -0.3125 C 3.363281 -0.3125 4.109375 -1.050781 4.109375 -2.53125 Z M 4.109375 -2.53125 "/></g></g></g><g fill="#000000" fill-opacity="1"><g transform="translate(106.661965, 51.774272)"><g><path d="M 0.703125 0 L 0.703125 -4.984375 L 1.046875 -4.984375 L 1.046875 0 Z M 0.703125 0 "/></g></g></g><g fill="#000000" fill-opacity="1"><g transform="translate(110.512612, 51.774272)"><g><path d="M 3.453125 -1.28125 C 3.453125 -0.863281 3.300781 -0.535156 3 -0.296875 C 2.695312 -0.0546875 2.289062 0.0625 1.78125 0.0625 C 1.164062 0.0625 0.695312 -0.00390625 0.375 -0.140625 L 0.375 -0.484375 C 0.738281 -0.328125 1.195312 -0.25 1.75 -0.25 C 2.15625 -0.25 2.476562 -0.34375 2.71875 -0.53125 C 2.96875 -0.71875 3.09375 -0.960938 3.09375 -1.265625 C 3.09375 -1.460938 3.050781 -1.617188 2.96875 -1.734375 C 2.882812 -1.859375 2.753906 -1.972656 2.578125 -2.078125 C 2.398438 -2.179688 2.132812 -2.289062 1.78125 -2.40625 C 1.269531 -2.582031 0.914062 -2.769531 0.71875 -2.96875 C 0.53125 -3.175781 0.4375 -3.453125 0.4375 -3.796875 C 0.4375 -4.171875 0.582031 -4.472656 0.875 -4.703125 C 1.164062 -4.941406 1.539062 -5.0625 2 -5.0625 C 2.46875 -5.0625 2.910156 -4.972656 3.328125 -4.796875 L 3.203125 -4.484375 C 2.785156 -4.660156 2.390625 -4.75 2.015625 -4.75 C 1.640625 -4.75 1.34375 -4.660156 1.125 -4.484375 C 0.914062 -4.316406 0.8125 -4.085938 0.8125 -3.796875 C 0.8125 -3.609375 0.84375 -3.457031 0.90625 -3.34375 C 0.96875 -3.226562 1.078125 -3.125 1.234375 -3.03125 C 1.390625 -2.9375 1.648438 -2.820312 2.015625 -2.6875 C 2.410156 -2.550781 2.703125 -2.421875 2.890625 -2.296875 C 3.085938 -2.171875 3.226562 -2.023438 3.3125 -1.859375 C 3.40625 -1.703125 3.453125 -1.507812 3.453125 -1.28125 Z M 3.453125 -1.28125 "/></g></g></g><g fill="#000000" fill-opacity="1"><g transform="translate(116.410404, 51.774272)"><g><path d="M 2 0 L 1.65625 0 L 1.65625 -4.65625 L 0.03125 -4.65625 L 0.03125 -4.984375 L 3.625 -4.984375 L 3.625 -4.65625 L 2 -4.65625 Z M 2 0 "/></g></g></g><g fill="#000000" fill-opacity="1"><g transform="translate(122.161479, 51.774272)"><g><path d="M 1.046875 -2.171875 L 1.046875 0 L 0.703125 0 L 0.703125 -4.984375 L 1.890625 -4.984375 C 2.515625 -4.984375 2.972656 -4.867188 3.265625 -4.640625 C 3.554688 -4.410156 3.703125 -4.066406 3.703125 -3.609375 C 3.703125 -3.273438 3.613281 -2.992188 3.4375 -2.765625 C 3.257812 -2.535156 2.992188 -2.367188 2.640625 -2.265625 L 4 0 L 3.578125 0 L 2.296875 -2.171875 Z M 1.046875 -2.46875 L 2 -2.46875 C 2.425781 -2.46875 2.753906 -2.5625 2.984375 -2.75 C 3.210938 -2.9375 3.328125 -3.210938 3.328125 -3.578125 C 3.328125 -3.960938 3.210938 -4.238281 2.984375 -4.40625 C 2.765625 -4.582031 2.394531 -4.671875 1.875 -4.671875 L 1.046875 -4.671875 Z M 1.046875 -2.46875 "/></g></g></g><g fill="#000000" fill-opacity="1"><g transform="translate(128.403869, 51.774272)"><g><path d="M 0.703125 0 L 0.703125 -4.984375 L 1.046875 -4.984375 L 1.046875 0 Z M 0.703125 0 "/></g></g></g><g fill="#000000" fill-opacity="1"><g transform="translate(132.254516, 51.774272)"><g><path d="M 0.703125 -4.984375 L 2.078125 -4.984375 C 2.691406 -4.984375 3.140625 -4.878906 3.421875 -4.671875 C 3.710938 -4.460938 3.859375 -4.144531 3.859375 -3.71875 C 3.859375 -3.4375 3.769531 -3.195312 3.59375 -3 C 3.414062 -2.8125 3.160156 -2.6875 2.828125 -2.625 L 2.828125 -2.609375 C 3.222656 -2.554688 3.515625 -2.429688 3.703125 -2.234375 C 3.890625 -2.046875 3.984375 -1.78125 3.984375 -1.4375 C 3.984375 -0.976562 3.832031 -0.625 3.53125 -0.375 C 3.226562 -0.125 2.796875 0 2.234375 0 L 0.703125 0 Z M 1.046875 -2.765625 L 2.15625 -2.765625 C 2.625 -2.765625 2.960938 -2.84375 3.171875 -3 C 3.390625 -3.15625 3.5 -3.398438 3.5 -3.734375 C 3.5 -4.066406 3.375 -4.304688 3.125 -4.453125 C 2.882812 -4.597656 2.53125 -4.671875 2.0625 -4.671875 L 1.046875 -4.671875 Z M 1.046875 -2.453125 L 1.046875 -0.3125 L 2.234375 -0.3125 C 3.148438 -0.3125 3.609375 -0.6875 3.609375 -1.4375 C 3.609375 -2.113281 3.125 -2.453125 2.15625 -2.453125 Z M 1.046875 -2.453125 "/></g></g></g><g fill="#000000" fill-opacity="1"><g transform="translate(138.725508, 51.774272)"><g><path d="M 4.375 -4.984375 L 4.375 -1.765625 C 4.375 -1.191406 4.207031 -0.742188 3.875 -0.421875 C 3.539062 -0.0976562 3.078125 0.0625 2.484375 0.0625 C 1.910156 0.0625 1.457031 -0.0976562 1.125 -0.421875 C 0.800781 -0.742188 0.640625 -1.191406 0.640625 -1.765625 L 0.640625 -4.984375 L 1 -4.984375 L 1 -1.765625 C 1 -1.285156 1.128906 -0.910156 1.390625 -0.640625 C 1.660156 -0.367188 2.039062 -0.234375 2.53125 -0.234375 C 3 -0.234375 3.363281 -0.363281 3.625 -0.625 C 3.894531 -0.894531 4.03125 -1.257812 4.03125 -1.71875 L 4.03125 -4.984375 Z M 4.375 -4.984375 "/></g></g></g><g fill="#000000" fill-opacity="1"><g transform="translate(145.841346, 51.774272)"><g><path d="M 2 0 L 1.65625 0 L 1.65625 -4.65625 L 0.03125 -4.65625 L 0.03125 -4.984375 L 3.625 -4.984375 L 3.625 -4.65625 L 2 -4.65625 Z M 2 0 "/></g></g></g><g fill="#000000" fill-opacity="1"><g transform="translate(151.592422, 51.774272)"><g><path d="M 4.890625 -2.5 C 4.890625 -1.707031 4.691406 -1.082031 4.296875 -0.625 C 3.898438 -0.164062 3.359375 0.0625 2.671875 0.0625 C 1.972656 0.0625 1.425781 -0.164062 1.03125 -0.625 C 0.632812 -1.082031 0.4375 -1.707031 0.4375 -2.5 C 0.4375 -3.300781 0.632812 -3.925781 1.03125 -4.375 C 1.4375 -4.832031 1.984375 -5.0625 2.671875 -5.0625 C 3.367188 -5.0625 3.910156 -4.832031 4.296875 -4.375 C 4.691406 -3.914062 4.890625 -3.289062 4.890625 -2.5 Z M 0.8125 -2.5 C 0.8125 -1.78125 0.96875 -1.226562 1.28125 -0.84375 C 1.601562 -0.457031 2.066406 -0.265625 2.671875 -0.265625 C 3.265625 -0.265625 3.71875 -0.457031 4.03125 -0.84375 C 4.351562 -1.226562 4.515625 -1.78125 4.515625 -2.5 C 4.515625 -3.21875 4.351562 -3.769531 4.03125 -4.15625 C 3.71875 -4.539062 3.265625 -4.734375 2.671875 -4.734375 C 2.078125 -4.734375 1.617188 -4.535156 1.296875 -4.140625 C 0.972656 -3.753906 0.8125 -3.207031 0.8125 -2.5 Z M 0.8125 -2.5 "/></g></g></g><g fill="#000000" fill-opacity="1"><g transform="translate(159.022155, 51.774272)"><g><path d="M 1.046875 -2.171875 L 1.046875 0 L 0.703125 0 L 0.703125 -4.984375 L 1.890625 -4.984375 C 2.515625 -4.984375 2.972656 -4.867188 3.265625 -4.640625 C 3.554688 -4.410156 3.703125 -4.066406 3.703125 -3.609375 C 3.703125 -3.273438 3.613281 -2.992188 3.4375 -2.765625 C 3.257812 -2.535156 2.992188 -2.367188 2.640625 -2.265625 L 4 0 L 3.578125 0 L 2.296875 -2.171875 Z M 1.046875 -2.46875 L 2 -2.46875 C 2.425781 -2.46875 2.753906 -2.5625 2.984375 -2.75 C 3.210938 -2.9375 3.328125 -3.210938 3.328125 -3.578125 C 3.328125 -3.960938 3.210938 -4.238281 2.984375 -4.40625 C 2.765625 -4.582031 2.394531 -4.671875 1.875 -4.671875 L 1.046875 -4.671875 Z M 1.046875 -2.46875 "/></g></g></g><g fill="#000000" fill-opacity="1"><g transform="translate(165.264545, 51.774272)"><g><path d="M 3.453125 -1.28125 C 3.453125 -0.863281 3.300781 -0.535156 3 -0.296875 C 2.695312 -0.0546875 2.289062 0.0625 1.78125 0.0625 C 1.164062 0.0625 0.695312 -0.00390625 0.375 -0.140625 L 0.375 -0.484375 C 0.738281 -0.328125 1.195312 -0.25 1.75 -0.25 C 2.15625 -0.25 2.476562 -0.34375 2.71875 -0.53125 C 2.96875 -0.71875 3.09375 -0.960938 3.09375 -1.265625 C 3.09375 -1.460938 3.050781 -1.617188 2.96875 -1.734375 C 2.882812 -1.859375 2.753906 -1.972656 2.578125 -2.078125 C 2.398438 -2.179688 2.132812 -2.289062 1.78125 -2.40625 C 1.269531 -2.582031 0.914062 -2.769531 0.71875 -2.96875 C 0.53125 -3.175781 0.4375 -3.453125 0.4375 -3.796875 C 0.4375 -4.171875 0.582031 -4.472656 0.875 -4.703125 C 1.164062 -4.941406 1.539062 -5.0625 2 -5.0625 C 2.46875 -5.0625 2.910156 -4.972656 3.328125 -4.796875 L 3.203125 -4.484375 C 2.785156 -4.660156 2.390625 -4.75 2.015625 -4.75 C 1.640625 -4.75 1.34375 -4.660156 1.125 -4.484375 C 0.914062 -4.316406 0.8125 -4.085938 0.8125 -3.796875 C 0.8125 -3.609375 0.84375 -3.457031 0.90625 -3.34375 C 0.96875 -3.226562 1.078125 -3.125 1.234375 -3.03125 C 1.390625 -2.9375 1.648438 -2.820312 2.015625 -2.6875 C 2.410156 -2.550781 2.703125 -2.421875 2.890625 -2.296875 C 3.085938 -2.171875 3.226562 -2.023438 3.3125 -1.859375 C 3.40625 -1.703125 3.453125 -1.507812 3.453125 -1.28125 Z M 3.453125 -1.28125 "/></g></g></g><g fill="#000000" fill-opacity="1"><g transform="translate(20.841105, 31.600158)"><g><path d="M 6.1875 0 C 5.914062 0 5.78125 -0.078125 5.78125 -0.234375 L 5.78125 -0.359375 C 5.78125 -0.484375 5.894531 -0.554688 6.125 -0.578125 C 6.351562 -0.609375 6.503906 -0.628906 6.578125 -0.640625 C 7.171875 -0.703125 7.585938 -0.847656 7.828125 -1.078125 C 8.078125 -1.304688 8.203125 -1.648438 8.203125 -2.109375 L 8.203125 -6 C 8.203125 -6.0625 8.191406 -6.125 8.171875 -6.1875 L 3.359375 -13.84375 C 2.609375 -15.039062 1.863281 -15.726562 1.125 -15.90625 C 1.082031 -15.914062 1.007812 -15.929688 0.90625 -15.953125 C 0.8125 -15.972656 0.585938 -16.015625 0.234375 -16.078125 C 0.109375 -16.097656 0.046875 -16.179688 0.046875 -16.328125 C 0.046875 -16.484375 0.101562 -16.5625 0.21875 -16.5625 L 6.9375 -16.5625 C 7.070312 -16.5625 7.140625 -16.484375 7.140625 -16.328125 C 7.140625 -16.171875 7.070312 -16.09375 6.9375 -16.09375 C 6.414062 -16.039062 6.066406 -15.988281 5.890625 -15.9375 C 5.503906 -15.789062 5.3125 -15.539062 5.3125 -15.1875 C 5.3125 -14.988281 5.359375 -14.816406 5.453125 -14.671875 L 9.421875 -8.328125 C 9.503906 -8.203125 9.554688 -8.117188 9.578125 -8.078125 C 9.597656 -8.046875 9.640625 -8.03125 9.703125 -8.03125 C 9.773438 -8.03125 9.878906 -8.144531 10.015625 -8.375 L 13.1875 -13.765625 C 13.28125 -13.953125 13.390625 -14.15625 13.515625 -14.375 C 13.640625 -14.59375 13.703125 -14.816406 13.703125 -15.046875 C 13.703125 -15.609375 13.3125 -15.941406 12.53125 -16.046875 C 12.25 -16.085938 12.09375 -16.128906 12.0625 -16.171875 C 12.039062 -16.222656 12.03125 -16.285156 12.03125 -16.359375 C 12.03125 -16.492188 12.097656 -16.5625 12.234375 -16.5625 L 17.71875 -16.5625 C 17.820312 -16.5625 17.875 -16.503906 17.875 -16.390625 C 17.875 -16.285156 17.859375 -16.210938 17.828125 -16.171875 C 17.796875 -16.140625 17.75 -16.113281 17.6875 -16.09375 C 17.625 -16.070312 17.554688 -16.054688 17.484375 -16.046875 C 17.421875 -16.035156 17.269531 -16 17.03125 -15.9375 C 16.488281 -15.8125 15.894531 -15.378906 15.25 -14.640625 C 15.175781 -14.554688 15.140625 -14.503906 15.140625 -14.484375 L 10.484375 -6.5 L 10.484375 -2.109375 C 10.484375 -1.691406 10.601562 -1.359375 10.84375 -1.109375 C 11.082031 -0.867188 11.484375 -0.710938 12.046875 -0.640625 C 12.617188 -0.566406 12.90625 -0.472656 12.90625 -0.359375 L 12.90625 -0.234375 C 12.90625 -0.078125 12.773438 0 12.515625 0 Z M 6.1875 0 "/></g></g></g><g fill="#000000" fill-opacity="1"><g transform="translate(38.784731, 31.600158)"><g><path d="M 6.25 -0.09375 C 6.25 -0.03125 6.21875 0 6.15625 0 L 0.15625 0 C 0.09375 0 0.0625 -0.03125 0.0625 -0.09375 L 0.0625 -0.375 C 0.0625 -0.4375 0.113281 -0.46875 0.21875 -0.46875 C 1.289062 -0.519531 2.015625 -1.09375 2.390625 -2.1875 L 7.171875 -16.0625 C 7.179688 -16.070312 7.1875 -16.09375 7.1875 -16.125 L 7.0625 -16.5 C 7.0625 -16.539062 7.078125 -16.5625 7.109375 -16.5625 L 9.453125 -16.5625 C 9.472656 -16.5625 9.492188 -16.554688 9.515625 -16.546875 C 9.546875 -16.535156 9.570312 -16.507812 9.59375 -16.46875 L 14.5625 -2.53125 C 14.664062 -2.3125 14.75 -2.113281 14.8125 -1.9375 C 14.882812 -1.769531 14.960938 -1.617188 15.046875 -1.484375 C 15.234375 -1.160156 15.546875 -0.910156 15.984375 -0.734375 C 16.335938 -0.554688 16.664062 -0.46875 16.96875 -0.46875 C 17.03125 -0.46875 17.0625 -0.429688 17.0625 -0.359375 L 17.0625 -0.09375 C 17.0625 -0.03125 17.03125 0 16.96875 0 L 9.78125 0 C 9.71875 0 9.6875 -0.03125 9.6875 -0.09375 L 9.6875 -0.375 C 9.6875 -0.4375 9.828125 -0.472656 10.109375 -0.484375 C 10.398438 -0.503906 10.640625 -0.523438 10.828125 -0.546875 C 11.921875 -0.660156 12.46875 -1.023438 12.46875 -1.640625 C 12.46875 -1.691406 12.457031 -1.75 12.4375 -1.8125 L 10.671875 -6.8125 C 10.660156 -6.832031 10.644531 -6.867188 10.625 -6.921875 C 10.53125 -7.179688 10.363281 -7.3125 10.125 -7.3125 L 5.953125 -7.3125 C 5.722656 -7.3125 5.539062 -7.1875 5.40625 -6.9375 C 5.382812 -6.875 5.375 -6.84375 5.375 -6.84375 L 3.609375 -1.6875 L 3.609375 -1.578125 C 3.609375 -1.367188 3.710938 -1.179688 3.921875 -1.015625 C 4.398438 -0.648438 5.039062 -0.46875 5.84375 -0.46875 L 6.15625 -0.46875 C 6.21875 -0.46875 6.25 -0.4375 6.25 -0.375 Z M 9.734375 -8.625 C 9.867188 -8.625 9.9375 -8.679688 9.9375 -8.796875 C 9.9375 -8.859375 9.921875 -8.929688 9.890625 -9.015625 L 8.140625 -13.828125 C 8.066406 -14.035156 8.007812 -14.140625 7.96875 -14.140625 C 7.925781 -14.140625 7.863281 -14.03125 7.78125 -13.8125 L 6.140625 -9.015625 C 6.109375 -8.929688 6.09375 -8.84375 6.09375 -8.75 C 6.09375 -8.664062 6.148438 -8.625 6.265625 -8.625 Z M 9.734375 -8.625 "/></g></g></g><g fill="#000000" fill-opacity="1"><g transform="translate(55.905795, 31.600158)"><g><path d="M 9.921875 -16.421875 C 9.992188 -16.421875 10.03125 -16.335938 10.03125 -16.171875 L 10.34375 -13.671875 C 10.375 -13.503906 10.390625 -13.398438 10.390625 -13.359375 C 10.390625 -13.316406 10.328125 -13.296875 10.203125 -13.296875 C 10.078125 -13.296875 10 -13.3125 9.96875 -13.34375 C 9.9375 -13.375 9.90625 -13.425781 9.875 -13.5 C 9.84375 -13.582031 9.804688 -13.671875 9.765625 -13.765625 C 9.722656 -13.859375 9.679688 -13.953125 9.640625 -14.046875 C 9.472656 -14.398438 9.210938 -14.753906 8.859375 -15.109375 C 7.992188 -15.941406 7.019531 -16.359375 5.9375 -16.359375 C 5.289062 -16.359375 4.675781 -16.144531 4.09375 -15.71875 C 3.519531 -15.300781 3.234375 -14.800781 3.234375 -14.21875 C 3.234375 -13.644531 3.335938 -13.144531 3.546875 -12.71875 C 3.765625 -12.300781 4.050781 -11.910156 4.40625 -11.546875 C 4.757812 -11.191406 5.160156 -10.847656 5.609375 -10.515625 C 6.066406 -10.179688 6.53125 -9.847656 7 -9.515625 C 8.25 -8.648438 9.132812 -7.90625 9.65625 -7.28125 C 10.476562 -6.320312 10.925781 -5.25 11 -4.0625 C 11 -2.726562 10.488281 -1.664062 9.46875 -0.875 C 8.445312 -0.0820312 7.253906 0.3125 5.890625 0.3125 C 5.023438 0.3125 4.335938 0.222656 3.828125 0.046875 C 3.316406 -0.128906 2.960938 -0.253906 2.765625 -0.328125 C 2.566406 -0.410156 2.421875 -0.453125 2.328125 -0.453125 C 2.242188 -0.453125 2.1875 -0.445312 2.15625 -0.4375 L 1.59375 -0.3125 C 1.488281 -0.3125 1.421875 -0.394531 1.390625 -0.5625 C 1.171875 -2.507812 1.0625 -3.539062 1.0625 -3.65625 C 1.0625 -3.78125 1.066406 -3.863281 1.078125 -3.90625 C 1.097656 -3.945312 1.15625 -3.96875 1.25 -3.96875 C 1.46875 -3.96875 1.664062 -3.65625 1.84375 -3.03125 C 2.664062 -1.269531 4.03125 -0.390625 5.9375 -0.390625 C 6.820312 -0.390625 7.570312 -0.65625 8.1875 -1.1875 C 8.8125 -1.71875 9.125 -2.410156 9.125 -3.265625 C 9.125 -4.628906 8.3125 -5.898438 6.6875 -7.078125 C 6.21875 -7.398438 5.550781 -7.851562 4.6875 -8.4375 C 3.820312 -9.03125 3.128906 -9.617188 2.609375 -10.203125 C 1.796875 -11.117188 1.390625 -12.132812 1.390625 -13.25 C 1.390625 -14.363281 1.832031 -15.273438 2.71875 -15.984375 C 3.613281 -16.703125 4.640625 -17.0625 5.796875 -17.0625 C 6.390625 -17.0625 7.039062 -16.957031 7.75 -16.75 C 8.46875 -16.550781 8.972656 -16.414062 9.265625 -16.34375 Z M 9.921875 -16.421875 "/></g></g></g><g fill="#000000" fill-opacity="1"><g transform="translate(67.962216, 31.600158)"><g><path d="M 17.125 -2.125 C 17.125 -1.070312 17.851562 -0.519531 19.3125 -0.46875 C 19.375 -0.46875 19.40625 -0.4375 19.40625 -0.375 L 19.40625 -0.09375 C 19.40625 -0.03125 19.375 0 19.3125 0 L 11.84375 0 C 11.78125 0 11.75 -0.03125 11.75 -0.09375 L 11.75 -0.375 C 11.75 -0.4375 11.941406 -0.46875 12.328125 -0.46875 C 12.722656 -0.46875 13.171875 -0.554688 13.671875 -0.734375 C 14.441406 -0.984375 14.828125 -1.40625 14.828125 -2 L 14.828125 -7.609375 C 14.828125 -7.679688 14.8125 -7.726562 14.78125 -7.75 C 14.757812 -7.78125 14.710938 -7.796875 14.640625 -7.796875 L 5.375 -7.796875 C 5.300781 -7.796875 5.25 -7.78125 5.21875 -7.75 C 5.195312 -7.726562 5.1875 -7.679688 5.1875 -7.609375 L 5.1875 -1.875 C 5.1875 -0.9375 5.878906 -0.46875 7.265625 -0.46875 C 7.328125 -0.46875 7.359375 -0.4375 7.359375 -0.375 L 7.359375 -0.09375 C 7.359375 -0.03125 7.332031 0 7.28125 0 L 0.796875 0 C 0.734375 0 0.703125 -0.03125 0.703125 -0.09375 L 0.703125 -0.375 C 0.703125 -0.4375 0.78125 -0.46875 0.9375 -0.46875 C 2.25 -0.46875 2.90625 -1.03125 2.90625 -2.15625 L 2.90625 -14.6875 C 2.90625 -15.601562 2.359375 -16.085938 1.265625 -16.140625 C 1.097656 -16.148438 1.015625 -16.1875 1.015625 -16.25 L 1.015625 -16.46875 C 1.015625 -16.53125 1.046875 -16.5625 1.109375 -16.5625 L 7 -16.5625 C 7.0625 -16.5625 7.09375 -16.53125 7.09375 -16.46875 L 7.09375 -16.25 C 7.09375 -16.195312 7.019531 -16.171875 6.875 -16.171875 C 5.75 -16.171875 5.1875 -15.617188 5.1875 -14.515625 L 5.1875 -9.09375 C 5.1875 -9.007812 5.195312 -8.957031 5.21875 -8.9375 C 5.25 -8.914062 5.300781 -8.90625 5.375 -8.90625 L 14.640625 -8.90625 C 14.710938 -8.90625 14.757812 -8.914062 14.78125 -8.9375 C 14.8125 -8.957031 14.828125 -9.007812 14.828125 -9.09375 L 14.828125 -14.703125 C 14.804688 -14.773438 14.796875 -14.835938 14.796875 -14.890625 C 14.796875 -14.953125 14.78125 -15.050781 14.75 -15.1875 C 14.695312 -15.445312 14.421875 -15.660156 13.921875 -15.828125 C 13.421875 -15.992188 12.851562 -16.101562 12.21875 -16.15625 C 12.15625 -16.15625 12.125 -16.1875 12.125 -16.25 L 12.125 -16.46875 C 12.125 -16.53125 12.148438 -16.5625 12.203125 -16.5625 L 18.984375 -16.5625 C 19.046875 -16.5625 19.078125 -16.53125 19.078125 -16.46875 L 19.078125 -16.25 C 19.078125 -16.195312 19.003906 -16.171875 18.859375 -16.171875 C 17.703125 -16.171875 17.125 -15.617188 17.125 -14.515625 Z M 17.125 -2.125 "/></g></g></g><g fill="#cb6ce6" fill-opacity="1"><g transform="translate(88.088991, 31.600158)"><g><path d="M 6.25 -0.09375 C 6.25 -0.03125 6.21875 0 6.15625 0 L 0.15625 0 C 0.09375 0 0.0625 -0.03125 0.0625 -0.09375 L 0.0625 -0.375 C 0.0625 -0.4375 0.113281 -0.46875 0.21875 -0.46875 C 1.289062 -0.519531 2.015625 -1.09375 2.390625 -2.1875 L 7.171875 -16.0625 C 7.179688 -16.070312 7.1875 -16.09375 7.1875 -16.125 L 7.0625 -16.5 C 7.0625 -16.539062 7.078125 -16.5625 7.109375 -16.5625 L 9.453125 -16.5625 C 9.472656 -16.5625 9.492188 -16.554688 9.515625 -16.546875 C 9.546875 -16.535156 9.570312 -16.507812 9.59375 -16.46875 L 14.5625 -2.53125 C 14.664062 -2.3125 14.75 -2.113281 14.8125 -1.9375 C 14.882812 -1.769531 14.960938 -1.617188 15.046875 -1.484375 C 15.234375 -1.160156 15.546875 -0.910156 15.984375 -0.734375 C 16.335938 -0.554688 16.664062 -0.46875 16.96875 -0.46875 C 17.03125 -0.46875 17.0625 -0.429688 17.0625 -0.359375 L 17.0625 -0.09375 C 17.0625 -0.03125 17.03125 0 16.96875 0 L 9.78125 0 C 9.71875 0 9.6875 -0.03125 9.6875 -0.09375 L 9.6875 -0.375 C 9.6875 -0.4375 9.828125 -0.472656 10.109375 -0.484375 C 10.398438 -0.503906 10.640625 -0.523438 10.828125 -0.546875 C 11.921875 -0.660156 12.46875 -1.023438 12.46875 -1.640625 C 12.46875 -1.691406 12.457031 -1.75 12.4375 -1.8125 L 10.671875 -6.8125 C 10.660156 -6.832031 10.644531 -6.867188 10.625 -6.921875 C 10.53125 -7.179688 10.363281 -7.3125 10.125 -7.3125 L 5.953125 -7.3125 C 5.722656 -7.3125 5.539062 -7.1875 5.40625 -6.9375 C 5.382812 -6.875 5.375 -6.84375 5.375 -6.84375 L 3.609375 -1.6875 L 3.609375 -1.578125 C 3.609375 -1.367188 3.710938 -1.179688 3.921875 -1.015625 C 4.398438 -0.648438 5.039062 -0.46875 5.84375 -0.46875 L 6.15625 -0.46875 C 6.21875 -0.46875 6.25 -0.4375 6.25 -0.375 Z M 9.734375 -8.625 C 9.867188 -8.625 9.9375 -8.679688 9.9375 -8.796875 C 9.9375 -8.859375 9.921875 -8.929688 9.890625 -9.015625 L 8.140625 -13.828125 C 8.066406 -14.035156 8.007812 -14.140625 7.96875 -14.140625 C 7.925781 -14.140625 7.863281 -14.03125 7.78125 -13.8125 L 6.140625 -9.015625 C 6.109375 -8.929688 6.09375 -8.84375 6.09375 -8.75 C 6.09375 -8.664062 6.148438 -8.625 6.265625 -8.625 Z M 9.734375 -8.625 "/></g></g></g><g fill="#000000" fill-opacity="1"><g transform="translate(105.216096, 31.600158)"><g><path d="M 9.921875 -16.421875 C 9.992188 -16.421875 10.03125 -16.335938 10.03125 -16.171875 L 10.34375 -13.671875 C 10.375 -13.503906 10.390625 -13.398438 10.390625 -13.359375 C 10.390625 -13.316406 10.328125 -13.296875 10.203125 -13.296875 C 10.078125 -13.296875 10 -13.3125 9.96875 -13.34375 C 9.9375 -13.375 9.90625 -13.425781 9.875 -13.5 C 9.84375 -13.582031 9.804688 -13.671875 9.765625 -13.765625 C 9.722656 -13.859375 9.679688 -13.953125 9.640625 -14.046875 C 9.472656 -14.398438 9.210938 -14.753906 8.859375 -15.109375 C 7.992188 -15.941406 7.019531 -16.359375 5.9375 -16.359375 C 5.289062 -16.359375 4.675781 -16.144531 4.09375 -15.71875 C 3.519531 -15.300781 3.234375 -14.800781 3.234375 -14.21875 C 3.234375 -13.644531 3.335938 -13.144531 3.546875 -12.71875 C 3.765625 -12.300781 4.050781 -11.910156 4.40625 -11.546875 C 4.757812 -11.191406 5.160156 -10.847656 5.609375 -10.515625 C 6.066406 -10.179688 6.53125 -9.847656 7 -9.515625 C 8.25 -8.648438 9.132812 -7.90625 9.65625 -7.28125 C 10.476562 -6.320312 10.925781 -5.25 11 -4.0625 C 11 -2.726562 10.488281 -1.664062 9.46875 -0.875 C 8.445312 -0.0820312 7.253906 0.3125 5.890625 0.3125 C 5.023438 0.3125 4.335938 0.222656 3.828125 0.046875 C 3.316406 -0.128906 2.960938 -0.253906 2.765625 -0.328125 C 2.566406 -0.410156 2.421875 -0.453125 2.328125 -0.453125 C 2.242188 -0.453125 2.1875 -0.445312 2.15625 -0.4375 L 1.59375 -0.3125 C 1.488281 -0.3125 1.421875 -0.394531 1.390625 -0.5625 C 1.171875 -2.507812 1.0625 -3.539062 1.0625 -3.65625 C 1.0625 -3.78125 1.066406 -3.863281 1.078125 -3.90625 C 1.097656 -3.945312 1.15625 -3.96875 1.25 -3.96875 C 1.46875 -3.96875 1.664062 -3.65625 1.84375 -3.03125 C 2.664062 -1.269531 4.03125 -0.390625 5.9375 -0.390625 C 6.820312 -0.390625 7.570312 -0.65625 8.1875 -1.1875 C 8.8125 -1.71875 9.125 -2.410156 9.125 -3.265625 C 9.125 -4.628906 8.3125 -5.898438 6.6875 -7.078125 C 6.21875 -7.398438 5.550781 -7.851562 4.6875 -8.4375 C 3.820312 -9.03125 3.128906 -9.617188 2.609375 -10.203125 C 1.796875 -11.117188 1.390625 -12.132812 1.390625 -13.25 C 1.390625 -14.363281 1.832031 -15.273438 2.71875 -15.984375 C 3.613281 -16.703125 4.640625 -17.0625 5.796875 -17.0625 C 6.390625 -17.0625 7.039062 -16.957031 7.75 -16.75 C 8.46875 -16.550781 8.972656 -16.414062 9.265625 -16.34375 Z M 9.921875 -16.421875 "/></g></g></g><g fill="#000000" fill-opacity="1"><g transform="translate(117.272517, 31.600158)"><g><path d="M 6.484375 -16.09375 C 5.546875 -16.09375 5.078125 -15.734375 5.078125 -15.015625 C 5.078125 -14.878906 5.101562 -14.738281 5.15625 -14.59375 C 5.207031 -14.445312 5.25 -14.289062 5.28125 -14.125 L 9.78125 -3.296875 C 9.820312 -3.210938 9.882812 -3.171875 9.96875 -3.171875 C 10.0625 -3.171875 10.132812 -3.210938 10.1875 -3.296875 L 12.78125 -9.40625 L 10.484375 -14.9375 C 10.347656 -15.289062 9.765625 -15.628906 8.734375 -15.953125 C 8.421875 -16.046875 8.21875 -16.09375 8.125 -16.09375 C 8.039062 -16.09375 8 -16.125 8 -16.1875 L 8 -16.46875 C 8 -16.53125 8.03125 -16.5625 8.09375 -16.5625 L 18.859375 -16.5625 C 18.921875 -16.5625 18.953125 -16.53125 18.953125 -16.46875 L 18.953125 -16.1875 C 18.953125 -16.125 18.921875 -16.09375 18.859375 -16.09375 L 18.421875 -16.09375 C 17.671875 -16.09375 17.097656 -15.722656 16.703125 -14.984375 C 16.566406 -14.734375 16.429688 -14.441406 16.296875 -14.109375 L 14.765625 -10.53125 L 17.78125 -3.296875 C 17.8125 -3.210938 17.867188 -3.171875 17.953125 -3.171875 C 18.046875 -3.171875 18.117188 -3.210938 18.171875 -3.296875 L 23.140625 -14.984375 C 23.234375 -15.210938 23.28125 -15.410156 23.28125 -15.578125 C 23.28125 -15.921875 22.832031 -16.09375 21.9375 -16.09375 L 21.203125 -16.09375 C 21.140625 -16.09375 21.109375 -16.125 21.109375 -16.1875 L 21.109375 -16.46875 C 21.109375 -16.53125 21.140625 -16.5625 21.203125 -16.5625 L 26.4375 -16.5625 C 26.5 -16.5625 26.53125 -16.53125 26.53125 -16.46875 L 26.53125 -16.1875 C 26.53125 -16.125 26.5 -16.09375 26.4375 -16.09375 L 25.890625 -16.09375 C 25.535156 -16.09375 25.269531 -15.972656 25.09375 -15.734375 C 24.925781 -15.492188 24.679688 -15.007812 24.359375 -14.28125 L 18.3125 -0.09375 C 18.226562 0.09375 18.140625 0.207031 18.046875 0.25 C 17.953125 0.289062 17.816406 0.3125 17.640625 0.3125 L 17.078125 0.3125 C 16.890625 0.3125 16.765625 0.226562 16.703125 0.0625 L 13.53125 -7.625 L 10.328125 -0.09375 C 10.242188 0.09375 10.15625 0.207031 10.0625 0.25 C 9.96875 0.289062 9.828125 0.3125 9.640625 0.3125 L 9.09375 0.3125 C 8.90625 0.3125 8.785156 0.222656 8.734375 0.046875 L 2.5 -14.9375 C 2.375 -15.25 1.984375 -15.519531 1.328125 -15.75 C 0.679688 -15.976562 0.28125 -16.09375 0.125 -16.09375 C -0.0195312 -16.09375 -0.09375 -16.125 -0.09375 -16.1875 L -0.09375 -16.46875 C -0.09375 -16.53125 -0.0625 -16.5625 0 -16.5625 L 6.703125 -16.5625 C 6.765625 -16.5625 6.796875 -16.53125 6.796875 -16.46875 L 6.796875 -16.1875 C 6.796875 -16.125 6.765625 -16.09375 6.703125 -16.09375 Z M 15.296875 -15.546875 C 15.296875 -15.867188 14.957031 -16.046875 14.28125 -16.078125 C 13.601562 -16.046875 13.210938 -15.8125 13.109375 -15.375 C 13.078125 -15.257812 13.0625 -15.132812 13.0625 -15 C 13.0625 -14.875 13.085938 -14.738281 13.140625 -14.59375 C 13.191406 -14.445312 13.238281 -14.289062 13.28125 -14.125 L 14.015625 -12.328125 L 15.15625 -14.984375 C 15.25 -15.210938 15.296875 -15.398438 15.296875 -15.546875 Z M 15.296875 -15.546875 "/></g></g></g><g fill="#000000" fill-opacity="1"><g transform="translate(143.853047, 31.600158)"><g><path d="M 2.953125 -14.6875 C 2.953125 -15.625 2.414062 -16.09375 1.34375 -16.09375 C 1.164062 -16.09375 1.078125 -16.125 1.078125 -16.1875 L 1.078125 -16.46875 C 1.078125 -16.53125 1.109375 -16.5625 1.171875 -16.5625 L 7.0625 -16.5625 C 7.125 -16.5625 7.15625 -16.53125 7.15625 -16.46875 L 7.15625 -16.1875 C 7.15625 -16.125 6.984375 -16.09375 6.640625 -16.09375 C 6.296875 -16.09375 5.976562 -15.984375 5.6875 -15.765625 C 5.394531 -15.546875 5.25 -15.097656 5.25 -14.421875 L 5.25 -1.875 C 5.25 -0.9375 5.796875 -0.46875 6.890625 -0.46875 C 7.046875 -0.46875 7.125 -0.4375 7.125 -0.375 L 7.125 -0.09375 C 7.125 -0.03125 7.09375 0 7.03125 0 L 1.15625 0 C 1.09375 0 1.0625 -0.03125 1.0625 -0.09375 L 1.0625 -0.375 C 1.0625 -0.4375 1.234375 -0.46875 1.578125 -0.46875 C 1.921875 -0.46875 2.234375 -0.578125 2.515625 -0.796875 C 2.804688 -1.015625 2.953125 -1.46875 2.953125 -2.15625 Z M 2.953125 -14.6875 "/></g></g></g><g fill="#000000" fill-opacity="1"><g transform="translate(152.066931, 31.600158)"><g><path d="M 0.796875 0 C 0.734375 0 0.703125 -0.03125 0.703125 -0.09375 L 0.703125 -0.375 C 0.703125 -0.4375 0.742188 -0.46875 0.828125 -0.46875 L 1.09375 -0.46875 C 1.519531 -0.46875 1.8125 -0.507812 1.96875 -0.59375 C 2.550781 -0.875 2.84375 -1.644531 2.84375 -2.90625 L 2.84375 -15.125 C 2.84375 -15.644531 2.332031 -15.957031 1.3125 -16.0625 C 1.082031 -16.082031 0.921875 -16.09375 0.828125 -16.09375 C 0.742188 -16.09375 0.703125 -16.125 0.703125 -16.1875 L 0.703125 -16.46875 C 0.703125 -16.53125 0.734375 -16.5625 0.796875 -16.5625 L 5.09375 -16.5625 L 16.25 -4.234375 C 16.289062 -4.203125 16.316406 -4.175781 16.328125 -4.15625 C 16.347656 -4.132812 16.375 -4.125 16.40625 -4.125 C 16.4375 -4.125 16.453125 -4.160156 16.453125 -4.234375 L 16.453125 -12.328125 C 16.453125 -13.878906 16.320312 -14.894531 16.0625 -15.375 C 15.8125 -15.851562 15.296875 -16.09375 14.515625 -16.09375 L 13.90625 -16.09375 C 13.84375 -16.09375 13.8125 -16.125 13.8125 -16.1875 L 13.8125 -16.46875 C 13.8125 -16.53125 13.84375 -16.5625 13.90625 -16.5625 L 20.015625 -16.5625 C 20.078125 -16.5625 20.109375 -16.53125 20.109375 -16.46875 L 20.109375 -16.1875 C 20.109375 -16.125 19.992188 -16.09375 19.765625 -16.09375 C 19.535156 -16.09375 19.15625 -15.957031 18.625 -15.6875 C 18.09375 -15.425781 17.828125 -15.097656 17.828125 -14.703125 L 17.828125 -0.34375 C 17.828125 -0.164062 17.800781 -0.0390625 17.75 0.03125 C 17.707031 0.101562 17.597656 0.140625 17.421875 0.140625 C 17.253906 0.140625 17.125 0.101562 17.03125 0.03125 C 16.945312 -0.0390625 16.847656 -0.140625 16.734375 -0.265625 L 4.625 -13.703125 C 4.539062 -13.773438 4.46875 -13.8125 4.40625 -13.8125 C 4.363281 -13.8125 4.34375 -13.773438 4.34375 -13.703125 L 4.34375 -1.96875 C 4.34375 -1.257812 4.910156 -0.789062 6.046875 -0.5625 C 6.359375 -0.5 6.59375 -0.46875 6.75 -0.46875 C 6.914062 -0.46875 7 -0.4375 7 -0.375 L 7 -0.09375 C 7 -0.03125 6.96875 0 6.90625 0 Z M 0.796875 0 "/></g></g></g></svg>