<svg xmlns="http://www.w3.org/2000/svg" xmlns:xlink="http://www.w3.org/1999/xlink" width="200" zoomAndPan="magnify" viewBox="0 0 150 231.75" height="309" preserveAspectRatio="xMidYMid meet" version="1.0"><defs><filter x="0%" y="0%" width="100%" height="100%" id="7d97e35013"><feColorMatrix values="0 0 0 0 1 0 0 0 0 1 0 0 0 0 1 0 0 0 1 0" color-interpolation-filters="sRGB"/></filter><clipPath id="77f1c7323f"><path d="M 43 128 L 149.917969 128 L 149.917969 231.5 L 43 231.5 Z M 43 128 " clip-rule="nonzero"/></clipPath><mask id="1bbc22b12f"><g filter="url(#7d97e35013)"><rect x="-15" width="180" fill="#000000" y="-23.175" height="278.1" fill-opacity="0.9"/></g></mask><clipPath id="df513bf3fe"><path d="M 0.714844 0.871094 L 104 0.871094 L 104 85 L 0.714844 85 Z M 0.714844 0.871094 " clip-rule="nonzero"/></clipPath><clipPath id="9ae1255d92"><path d="M 50 99 L 54 99 L 54 103.351562 L 50 103.351562 Z M 50 99 " clip-rule="nonzero"/></clipPath><clipPath id="6386d5a091"><path d="M 105 61 L 106.917969 61 L 106.917969 64 L 105 64 Z M 105 61 " clip-rule="nonzero"/></clipPath><clipPath id="5c15d7f5a9"><rect x="0" width="107" y="0" height="104"/></clipPath><clipPath id="0722357f2a"><path d="M 0.0820312 0 L 42 0 L 42 52 L 0.0820312 52 Z M 0.0820312 0 " clip-rule="nonzero"/></clipPath><clipPath id="f62c90b71c"><path d="M 77 155 L 140.179688 155 L 140.179688 200 L 77 200 Z M 77 155 " clip-rule="nonzero"/></clipPath></defs><g clip-path="url(#77f1c7323f)"><g mask="url(#1bbc22b12f)"><g transform="matrix(1, 0, 0, 1, 43, 128)"><g clip-path="url(#5c15d7f5a9)"><g clip-path="url(#df513bf3fe)"><path fill="#cb6ce6" d="M 34.273438 0.96875 C 34.171875 0.9375 34.023438 0.910156 33.945312 0.902344 C 33.648438 0.886719 33.679688 1.21875 33.59375 1.425781 C 33.570312 1.484375 33.550781 1.519531 33.507812 1.5625 C 33.394531 1.679688 33.300781 1.796875 33.226562 1.941406 C 33.019531 2.117188 32.71875 2.054688 32.523438 1.886719 C 32.375 1.761719 32.238281 1.714844 32.046875 1.691406 C 31.695312 1.652344 31.460938 1.886719 31.601562 2.25 C 31.800781 2.773438 31.523438 3.25 31.449219 3.761719 C 31.425781 3.921875 31.386719 4.0625 31.3125 4.207031 L 31.296875 4.273438 C 31.234375 4.496094 31.015625 4.589844 30.800781 4.601562 C 30.355469 4.621094 30.207031 4.800781 29.910156 5.109375 C 29.503906 5.265625 29.257812 5.738281 29.132812 6.125 C 29.066406 6.335938 28.90625 6.386719 28.71875 6.449219 C 28.578125 6.511719 28.496094 6.578125 28.386719 6.6875 C 28.289062 6.703125 28.199219 6.796875 28.171875 6.894531 C 28.128906 7.03125 27.933594 7.167969 27.835938 7.273438 C 27.777344 7.34375 27.730469 7.417969 27.6875 7.5 C 27.632812 7.609375 27.457031 7.804688 27.3125 7.679688 C 27.214844 7.589844 27.167969 7.4375 27.125 7.3125 C 26.886719 7.109375 26.660156 7.171875 26.4375 7.363281 C 26.261719 7.511719 26.277344 7.855469 26.355469 8.042969 C 26.445312 8.261719 26.382812 8.433594 26.273438 8.628906 C 26.226562 8.730469 26.203125 8.832031 26.203125 8.945312 C 26.203125 9.535156 25.453125 9.996094 24.914062 9.996094 C 24.585938 9.996094 24.5625 9.761719 24.585938 9.480469 C 24.601562 9.246094 24.585938 9.0625 24.425781 8.902344 C 24.261719 8.738281 24.058594 8.667969 23.855469 8.566406 C 23.511719 8.429688 23.210938 8.53125 22.859375 8.53125 C 22.523438 8.53125 22.367188 8.808594 22.265625 9.089844 C 22.191406 9.300781 21.996094 9.324219 21.800781 9.242188 C 21.664062 9.09375 21.5 9.039062 21.289062 9.039062 C 21.050781 9.039062 20.910156 8.957031 20.726562 8.832031 C 20.617188 8.753906 20.4375 8.734375 20.300781 8.734375 C 20.046875 8.734375 19.875 8.800781 19.691406 8.964844 C 19.398438 9.230469 19.515625 9.71875 19.722656 9.992188 C 19.804688 10.101562 19.832031 10.230469 19.882812 10.355469 C 19.960938 10.546875 20.042969 10.671875 20.191406 10.820312 C 20.429688 11.050781 20.578125 11.398438 20.578125 11.738281 C 20.578125 11.894531 20.511719 12.144531 20.300781 12.089844 C 20.183594 12.0625 20.023438 12.121094 19.929688 12.191406 C 19.625 12.425781 19.554688 12.628906 19.554688 13.015625 C 19.554688 13.296875 19.585938 13.550781 19.808594 13.738281 C 20.0625 13.949219 20.246094 14.21875 20.152344 14.566406 C 20.082031 14.816406 19.746094 14.886719 19.53125 14.796875 C 19.3125 14.707031 19.128906 14.492188 18.941406 14.339844 C 18.832031 14.25 18.742188 14.15625 18.675781 14.027344 C 18.523438 13.726562 18.128906 13.769531 17.84375 13.796875 C 17.550781 13.824219 17.382812 13.664062 17.175781 13.488281 C 17.042969 13.371094 17.015625 13.171875 16.984375 13 C 16.910156 12.613281 16.722656 12.417969 16.421875 12.195312 C 16.3125 12.113281 16.207031 12.023438 16.097656 11.9375 C 15.886719 11.757812 15.585938 11.78125 15.328125 11.839844 C 15.238281 11.859375 15.148438 11.863281 15.128906 11.847656 C 14.996094 11.746094 15.203125 11.476562 15.242188 11.378906 C 15.304688 11.230469 15.390625 10.996094 15.292969 10.84375 C 15.191406 10.6875 15.046875 10.617188 14.882812 10.539062 C 14.710938 10.492188 14.5625 10.640625 14.546875 10.8125 C 14.535156 10.953125 14.277344 11.105469 14.164062 11.15625 C 13.867188 11.285156 13.746094 11.019531 13.632812 10.785156 L 13.578125 10.746094 C 13.546875 10.722656 13.492188 10.710938 13.453125 10.722656 C 13.1875 10.785156 13.4375 11.128906 13.472656 11.257812 C 13.492188 11.324219 13.519531 11.394531 13.546875 11.460938 C 13.601562 11.613281 13.691406 11.683594 13.835938 11.738281 C 13.90625 11.804688 13.972656 11.875 14.050781 11.9375 C 14.148438 12.023438 14.285156 12.046875 14.40625 12.074219 C 14.480469 12.167969 14.425781 12.300781 14.394531 12.402344 C 14.308594 12.65625 14.375 12.925781 14.496094 13.164062 C 14.558594 13.285156 14.652344 13.339844 14.757812 13.433594 C 14.945312 13.597656 14.828125 14.058594 14.75 14.242188 C 14.703125 14.351562 14.65625 14.453125 14.578125 14.542969 C 14.359375 14.816406 14.449219 15.164062 14.785156 15.277344 C 14.925781 15.324219 15.054688 15.378906 15.152344 15.492188 C 15.410156 15.78125 15.207031 16.257812 15.179688 16.589844 C 15.148438 16.949219 15.011719 17.09375 14.746094 17.292969 C 14.617188 17.390625 14.472656 17.417969 14.320312 17.355469 C 14.113281 17.265625 13.9375 17.054688 13.863281 16.839844 C 13.570312 16.492188 13.074219 16.046875 12.601562 16.28125 C 12.410156 16.378906 12.195312 16.421875 11.988281 16.46875 L 11.910156 16.5 C 11.578125 16.632812 11.574219 17.148438 11.714844 17.417969 C 11.765625 17.515625 11.914062 17.621094 12.007812 17.667969 C 12.085938 17.710938 12.046875 17.839844 11.980469 17.871094 C 11.714844 17.984375 11.617188 17.671875 11.515625 17.496094 C 11.253906 17.304688 10.988281 17.65625 10.753906 17.761719 C 10.625 17.820312 10.523438 17.902344 10.425781 18 C 10.316406 18.011719 10.265625 18.09375 10.1875 18.171875 C 10.035156 18.226562 9.917969 18.238281 9.753906 18.191406 C 9.597656 18.148438 9.433594 18.136719 9.320312 18.269531 C 9.226562 18.382812 9.210938 18.636719 9.246094 18.777344 C 9.300781 19.003906 9.199219 19.269531 9.023438 19.40625 C 8.855469 19.53125 8.714844 19.570312 8.5 19.585938 C 8.15625 19.613281 8.136719 19.910156 8.207031 20.183594 C 8.226562 20.261719 8.246094 20.339844 8.261719 20.414062 C 8.3125 20.660156 8.078125 20.671875 7.921875 20.773438 C 7.628906 20.964844 8.066406 21.207031 8.1875 21.3125 C 8.4375 21.515625 8.785156 21.597656 9.089844 21.511719 C 9.300781 21.453125 9.605469 21.652344 9.605469 21.882812 C 9.605469 22.101562 9.210938 22.015625 9.085938 22.007812 C 8.710938 21.972656 8.5 22.226562 8.34375 22.535156 C 8.304688 22.613281 8.261719 22.6875 8.207031 22.757812 C 8.160156 22.8125 8.132812 22.863281 8.105469 22.929688 C 7.996094 23.195312 7.742188 23.296875 7.496094 23.421875 C 7.328125 23.652344 7.335938 23.84375 7.425781 24.109375 C 7.523438 24.320312 7.59375 24.542969 7.660156 24.769531 C 7.707031 24.925781 7.765625 25.082031 7.867188 25.210938 C 8.109375 25.507812 8.085938 25.902344 8.175781 26.253906 C 8.246094 26.535156 8.050781 26.714844 7.796875 26.78125 C 7.6875 26.808594 7.496094 26.933594 7.636719 27.058594 C 7.691406 27.105469 7.738281 27.121094 7.800781 27.144531 C 7.984375 27.207031 7.949219 27.503906 7.90625 27.65625 C 7.882812 27.730469 7.835938 27.851562 7.796875 27.929688 C 7.703125 28.113281 7.566406 28.09375 7.386719 28.039062 C 7.230469 27.992188 7.179688 27.992188 6.855469 28.039062 C 6.660156 28.066406 6.410156 28.089844 6.296875 28.089844 C 6.09375 28.089844 5.890625 28.066406 5.71875 27.953125 C 5.613281 27.886719 5.496094 27.835938 5.378906 27.785156 C 5.171875 27.679688 4.984375 27.507812 4.886719 27.292969 C 4.761719 27.023438 4.535156 26.9375 4.289062 26.796875 C 4.164062 26.714844 4.035156 26.636719 3.902344 26.570312 C 3.765625 26.503906 3.628906 26.457031 3.589844 26.644531 C 3.539062 26.902344 3.699219 27.058594 3.84375 27.230469 C 3.933594 27.414062 4.023438 27.597656 4.113281 27.78125 C 4.222656 28.03125 4.167969 28.246094 4.0625 28.484375 C 3.972656 28.683594 4.097656 28.761719 4.269531 28.847656 C 4.484375 28.957031 4.601562 29.152344 4.699219 29.363281 C 4.699219 29.574219 4.605469 29.683594 4.464844 29.824219 C 4.4375 29.910156 4.394531 29.949219 4.328125 30.015625 C 4.257812 30.082031 4.203125 30.175781 4.183594 30.269531 C 4.148438 30.429688 4.074219 30.453125 3.925781 30.410156 C 3.550781 30.300781 3.167969 30.476562 2.796875 30.53125 C 2.570312 30.566406 2.382812 30.425781 2.214844 30.292969 C 1.964844 30.089844 1.457031 30.054688 1.203125 30.269531 C 1.136719 30.324219 1.113281 30.339844 1.070312 30.355469 C 0.894531 30.417969 0.734375 30.550781 0.714844 30.75 C 0.683594 31.078125 1.023438 31.441406 1.234375 31.65625 C 1.460938 31.890625 1.5625 32.152344 1.617188 32.464844 C 1.648438 32.636719 1.554688 32.8125 1.492188 32.96875 C 1.398438 33.160156 1.472656 33.339844 1.625 33.488281 C 1.753906 33.613281 1.835938 33.742188 1.835938 33.925781 C 1.835938 34.222656 1.960938 34.296875 2.261719 34.328125 C 2.527344 34.359375 2.59375 34.441406 2.707031 34.675781 C 2.820312 34.90625 2.828125 35.132812 2.785156 35.386719 C 2.71875 35.789062 2.902344 35.996094 3.203125 36.226562 C 3.386719 36.363281 3.652344 36.269531 3.84375 36.207031 C 4.15625 36.246094 4.183594 36.566406 4.316406 36.816406 C 4.425781 37.03125 4.472656 37.199219 4.425781 37.4375 C 4.390625 37.617188 4.410156 37.78125 4.527344 37.921875 C 4.589844 38.003906 4.632812 38.082031 4.671875 38.175781 C 4.832031 38.316406 4.988281 38.34375 5.195312 38.382812 C 5.296875 38.402344 5.417969 38.445312 5.464844 38.484375 C 5.519531 38.527344 5.554688 38.550781 5.566406 38.554688 C 5.652344 38.566406 5.757812 38.726562 5.808594 38.792969 C 5.945312 38.96875 6.027344 39.257812 6.027344 39.472656 C 6.027344 39.746094 5.691406 39.808594 5.53125 39.96875 C 5.4375 40.0625 5.332031 40.113281 5.222656 40.191406 C 4.949219 40.382812 4.96875 40.691406 4.96875 40.992188 C 4.96875 41.199219 4.875 41.371094 4.78125 41.554688 C 4.71875 41.6875 4.65625 41.84375 4.644531 41.90625 C 4.601562 42.148438 4.789062 42.355469 4.867188 42.574219 C 4.953125 42.695312 5.082031 42.746094 5.226562 42.773438 C 5.5 42.820312 5.46875 42.480469 5.417969 42.324219 C 5.335938 42.070312 5.332031 41.882812 5.449219 41.652344 C 5.539062 41.3125 5.855469 41.195312 6.164062 41.097656 L 6.3125 41.242188 C 6.460938 41.382812 6.757812 41.507812 6.914062 41.292969 C 7.003906 41.171875 7.015625 41.027344 7.015625 40.882812 C 7.015625 40.6875 7.097656 40.398438 7.351562 40.527344 C 7.539062 40.621094 7.621094 40.90625 7.695312 41.089844 C 7.742188 41.210938 7.828125 41.242188 7.953125 41.292969 C 8.164062 41.378906 8.195312 41.507812 8.242188 41.71875 C 8.332031 41.875 8.390625 41.910156 8.585938 41.917969 C 8.714844 41.921875 8.851562 41.941406 8.890625 41.960938 C 9.191406 42.101562 8.84375 42.433594 8.734375 42.574219 C 8.554688 42.808594 8.769531 43.179688 8.851562 43.421875 C 8.910156 43.621094 9.023438 43.742188 9.144531 43.902344 C 9.242188 44.027344 9.214844 44.140625 9.144531 44.285156 C 9.046875 44.484375 9.019531 44.722656 9.207031 44.878906 C 9.316406 44.96875 9.429688 45.058594 9.558594 45.125 C 9.722656 45.207031 9.800781 45.375 9.875 45.535156 C 9.882812 45.644531 9.96875 45.699219 10.042969 45.773438 C 10.0625 45.875 10.179688 45.976562 10.242188 46.058594 C 10.328125 46.171875 10.324219 46.363281 10.355469 46.496094 C 10.410156 46.730469 10.511719 46.871094 10.691406 47.023438 C 10.742188 47.066406 10.765625 47.101562 10.792969 47.164062 C 10.855469 47.300781 10.960938 47.542969 10.921875 47.691406 C 10.894531 47.808594 10.761719 47.738281 10.699219 47.707031 C 10.570312 47.640625 10.484375 47.539062 10.425781 47.40625 C 10.351562 47.222656 10.109375 46.972656 9.886719 47.144531 C 9.429688 47.496094 9.441406 48.183594 9.726562 48.640625 C 9.828125 48.808594 9.859375 48.902344 9.871094 49.097656 C 9.886719 49.40625 10 49.667969 10.070312 49.960938 C 10.097656 50.074219 10.019531 50.144531 9.917969 50.175781 C 9.855469 50.195312 9.644531 50.207031 9.445312 50.207031 C 9.242188 50.207031 9.0625 50.191406 9.035156 50.171875 C 8.945312 50.105469 8.875 50.019531 8.804688 49.9375 C 8.722656 49.839844 8.722656 49.835938 8.601562 49.707031 C 8.429688 49.53125 8.074219 49.480469 8.046875 49.792969 C 8.035156 49.914062 8.0625 50.015625 8.109375 50.128906 C 8.148438 50.265625 8.179688 50.40625 8.191406 50.554688 C 8.226562 50.988281 8.542969 51.269531 8.984375 51.179688 C 9.28125 51.117188 9.355469 51.339844 9.28125 51.574219 C 9.121094 52.101562 9.464844 52.578125 9.6875 53.035156 C 9.730469 53.359375 9.523438 53.519531 9.347656 53.753906 C 9.171875 53.988281 9.078125 54.253906 8.996094 54.535156 C 8.914062 54.796875 8.675781 54.96875 8.511719 55.1875 C 8.320312 55.4375 8.261719 55.71875 8.207031 56.023438 C 8.15625 56.3125 8.144531 56.601562 8.308594 56.855469 C 8.433594 57.042969 8.492188 57.238281 8.519531 57.464844 C 8.542969 57.679688 8.601562 57.878906 8.683594 58.078125 C 8.699219 58.394531 8.8125 58.753906 9.050781 58.972656 C 9.308594 59.210938 9.777344 59.316406 10.125 59.253906 C 10.261719 59.230469 10.488281 59.289062 10.371094 59.464844 C 10.078125 59.910156 10.808594 60.027344 11.089844 60.082031 C 11.226562 60.105469 11.351562 60.128906 11.480469 60.179688 C 11.589844 60.226562 11.707031 60.246094 11.824219 60.265625 C 12.195312 60.398438 12.355469 60.058594 12.609375 59.863281 C 12.835938 59.691406 13.199219 59.734375 13.417969 59.902344 C 13.621094 60.058594 13.632812 60.371094 13.660156 60.605469 C 13.78125 60.84375 14 60.769531 14.167969 60.621094 C 14.269531 60.527344 14.375 60.472656 14.515625 60.449219 C 14.792969 60.402344 14.996094 60.738281 15.164062 60.914062 C 15.25 61.027344 15.296875 61.152344 15.335938 61.289062 C 15.382812 61.460938 15.441406 61.625 15.507812 61.789062 C 15.542969 61.9375 15.570312 62.066406 15.570312 62.222656 C 15.570312 62.4375 15.457031 62.578125 15.238281 62.578125 C 15.015625 62.578125 14.855469 62.386719 14.6875 62.257812 C 14.441406 62.074219 14.273438 61.875 14.191406 61.582031 C 14.140625 61.40625 14.027344 61.199219 13.820312 61.28125 C 13.699219 61.328125 13.636719 61.453125 13.558594 61.558594 C 13.46875 61.683594 13.351562 61.738281 13.214844 61.800781 C 13.144531 61.871094 13.070312 61.9375 13 62.003906 C 12.59375 62.375 12.847656 62.816406 13.183594 63.109375 C 13.414062 63.308594 13.628906 63.53125 13.839844 63.753906 C 13.9375 63.855469 14.085938 64 14.242188 63.960938 C 14.402344 63.921875 14.652344 63.949219 14.808594 63.996094 C 15.007812 64.054688 15.136719 63.855469 15.207031 63.710938 C 15.328125 63.46875 15.566406 63.640625 15.734375 63.734375 C 15.914062 63.820312 16.113281 63.824219 16.308594 63.777344 C 16.558594 63.710938 16.675781 63.925781 16.695312 64.148438 C 16.765625 64.273438 16.839844 64.355469 16.984375 64.402344 C 17.210938 64.484375 17.269531 64.707031 17.308594 64.917969 C 17.332031 65.046875 17.371094 65.15625 17.4375 65.265625 C 17.414062 65.351562 17.167969 65.175781 17.121094 65.132812 C 16.972656 65.011719 16.757812 64.96875 16.574219 64.953125 C 16.320312 64.929688 16.273438 64.597656 16.335938 64.390625 C 16.40625 64.164062 16.148438 64.109375 16.003906 64.042969 C 15.722656 63.910156 15.375 64.039062 15.339844 64.363281 C 15.300781 64.722656 15.609375 64.976562 15.828125 65.210938 C 15.855469 65.265625 15.882812 65.320312 15.910156 65.375 C 15.949219 65.453125 15.992188 65.527344 16.046875 65.59375 C 16.238281 65.828125 16.035156 66.011719 15.808594 66.054688 C 15.375 66.140625 15.054688 65.941406 14.746094 65.675781 C 14.582031 65.539062 14.410156 65.429688 14.183594 65.414062 C 13.875 65.390625 13.707031 65.597656 13.515625 65.800781 C 13.386719 65.9375 13.269531 66.089844 13.363281 66.28125 C 13.445312 66.445312 13.648438 66.632812 13.835938 66.660156 C 14.167969 66.703125 14.285156 66.890625 14.40625 67.191406 C 14.460938 67.320312 14.574219 67.382812 14.703125 67.441406 C 14.988281 67.578125 15.191406 67.449219 15.476562 67.398438 C 15.671875 67.363281 15.71875 67.449219 15.855469 67.558594 C 16.023438 67.695312 15.851562 67.953125 15.84375 68.128906 C 15.824219 68.421875 16.195312 68.375 16.351562 68.253906 C 16.558594 68.097656 16.503906 67.917969 16.414062 67.699219 C 16.34375 67.445312 16.355469 67.230469 16.390625 66.972656 C 16.453125 66.839844 16.492188 66.710938 16.507812 66.566406 C 16.519531 66.398438 16.535156 66.359375 16.59375 66.34375 C 16.757812 66.304688 17.011719 66.441406 17.167969 66.496094 L 17.386719 66.546875 C 17.605469 66.597656 17.691406 66.683594 17.785156 66.875 C 17.824219 66.929688 17.84375 66.945312 17.910156 66.964844 C 18.058594 67 18.074219 66.875 18.109375 66.765625 C 18.152344 66.636719 18.265625 66.519531 18.339844 66.699219 C 18.433594 66.914062 18.480469 67.433594 18.097656 67.300781 C 17.929688 67.246094 17.820312 67.507812 17.800781 67.621094 C 17.769531 67.78125 17.722656 67.96875 17.585938 68.066406 C 17.339844 68.066406 17.183594 67.914062 16.96875 67.820312 C 16.75 67.765625 16.433594 68.015625 16.691406 68.214844 C 16.835938 68.328125 16.898438 68.4375 16.898438 68.628906 C 16.898438 69.019531 17.171875 69.203125 17.390625 69.492188 C 17.570312 69.738281 17.839844 69.980469 18.167969 69.875 C 18.335938 69.820312 18.472656 69.640625 18.539062 69.484375 C 18.613281 69.316406 18.402344 69.15625 18.304688 69.050781 C 18.148438 68.882812 18.105469 68.742188 18.160156 68.519531 C 18.21875 68.289062 18.34375 67.953125 18.523438 67.792969 C 18.894531 67.792969 18.949219 68.140625 19.164062 68.355469 C 19.300781 68.492188 19.351562 68.628906 19.351562 68.820312 C 19.351562 69.042969 19.164062 69.117188 18.980469 69.175781 C 18.878906 69.207031 18.613281 69.320312 18.710938 69.472656 C 18.851562 69.6875 19.148438 69.820312 19.347656 69.972656 C 19.453125 70.042969 19.554688 70.117188 19.65625 70.195312 C 19.882812 70.378906 20.179688 70.421875 20.445312 70.3125 C 20.648438 70.148438 21.09375 70.046875 21.230469 70.363281 C 21.335938 70.605469 21.183594 70.824219 21.140625 71.070312 C 21.101562 71.304688 21.25 71.515625 21.359375 71.710938 C 21.503906 72.046875 20.988281 72.023438 20.78125 72.039062 C 20.617188 72.046875 20.457031 72.058594 20.292969 72.085938 C 20.019531 72.132812 19.726562 72.511719 19.609375 72.765625 C 19.480469 73.042969 19.335938 73.375 19.449219 73.675781 C 19.523438 73.867188 19.585938 74.050781 19.609375 74.253906 C 19.640625 74.542969 19.726562 74.710938 19.921875 74.914062 C 20.152344 75.152344 20.5625 75.3125 20.890625 75.363281 C 21.214844 75.488281 21.464844 75.292969 21.6875 75.070312 C 21.867188 74.890625 21.914062 74.695312 22.03125 74.476562 C 22.246094 74.078125 22.28125 73.527344 22.28125 73.089844 C 22.28125 72.976562 22.308594 72.804688 22.460938 72.875 C 22.554688 72.917969 22.628906 72.980469 22.707031 73.042969 C 22.832031 73.136719 22.945312 73.199219 23.097656 73.25 C 23.40625 73.355469 23.585938 73.636719 23.726562 73.917969 C 23.878906 74.222656 24.078125 74.269531 24.398438 74.269531 C 24.636719 74.328125 24.824219 74.417969 25.039062 74.539062 C 25.472656 74.75 25.9375 74.730469 26.410156 74.746094 C 26.542969 74.746094 26.710938 74.773438 26.777344 74.910156 C 26.871094 75.097656 27.132812 75.386719 27.339844 75.414062 C 27.671875 75.457031 27.933594 75.53125 28.183594 75.753906 C 28.644531 76.164062 29.136719 76.394531 29.757812 76.433594 C 29.921875 76.441406 30.074219 76.460938 30.226562 76.519531 L 30.308594 76.585938 C 30.367188 76.632812 30.429688 76.671875 30.496094 76.707031 C 30.644531 76.785156 30.746094 76.96875 30.855469 77.09375 C 31.136719 77.164062 31.261719 76.976562 31.296875 76.722656 C 31.34375 76.394531 31.714844 76.539062 31.921875 76.621094 C 32.296875 76.742188 32.589844 76.546875 32.953125 76.484375 C 33.136719 76.355469 33.242188 76.226562 33.320312 76.011719 C 33.457031 75.667969 33.996094 75.246094 34.332031 75.582031 C 34.535156 75.785156 34.800781 75.9375 35.027344 76.109375 C 35.097656 76.15625 35.160156 76.1875 35.238281 76.214844 C 35.414062 76.390625 35.621094 76.542969 35.8125 76.707031 C 36.042969 76.898438 36.25 77.125 36.464844 77.339844 C 36.726562 77.550781 36.984375 77.769531 37.238281 78 C 37.535156 78.269531 37.941406 78.289062 38.320312 78.289062 C 38.667969 78.289062 38.808594 78.175781 39.015625 77.933594 C 39.300781 77.59375 39.644531 77.308594 39.984375 77.027344 C 40.160156 76.882812 40.332031 77.050781 40.195312 77.230469 C 40.140625 77.300781 40.089844 77.371094 40.035156 77.441406 C 39.707031 77.871094 39.816406 78.300781 40.003906 78.753906 C 40.128906 79.058594 40.476562 78.835938 40.625 78.703125 C 40.863281 78.488281 41.21875 78.417969 41.519531 78.535156 C 41.777344 78.753906 41.875 79.199219 42.019531 79.507812 C 42.269531 79.738281 42.609375 79.804688 42.9375 79.722656 C 43.101562 79.679688 43.242188 79.738281 43.386719 79.804688 C 43.65625 79.9375 44 79.773438 44.28125 79.746094 C 44.683594 79.707031 45 79.578125 45.316406 79.328125 C 45.613281 79.097656 45.816406 79.3125 46.140625 79.3125 C 46.234375 79.3125 46.308594 79.234375 46.375 79.179688 C 46.703125 79.074219 46.882812 79.316406 47.132812 79.507812 C 47.40625 79.714844 47.890625 79.550781 48.1875 79.445312 C 48.300781 79.40625 48.433594 79.359375 48.488281 79.25 C 48.566406 79.089844 48.746094 78.902344 48.921875 78.878906 C 49.214844 78.839844 49.378906 79.074219 49.617188 79.175781 C 49.75 79.234375 49.886719 79.210938 50.027344 79.175781 C 50.28125 79.113281 50.496094 79.292969 50.714844 79.398438 C 50.828125 79.453125 50.9375 79.433594 51.007812 79.335938 C 51.121094 79.175781 51.140625 78.902344 51.1875 78.714844 C 51.269531 78.585938 51.382812 78.425781 51.550781 78.425781 C 51.878906 78.425781 51.605469 78.746094 51.570312 78.878906 C 51.53125 79.046875 51.675781 79.144531 51.78125 79.238281 C 52.070312 79.378906 52.351562 79.441406 52.667969 79.464844 C 53.023438 79.492188 53.132812 79.71875 53.359375 79.96875 C 53.414062 80.03125 53.472656 80.117188 53.480469 80.160156 C 53.511719 80.269531 53.578125 80.375 53.636719 80.472656 L 53.667969 80.554688 C 53.84375 80.988281 54.507812 81.050781 54.898438 81.152344 C 54.941406 81.1875 54.984375 81.21875 55.027344 81.25 C 55.082031 81.285156 55.136719 81.324219 55.1875 81.359375 C 55.226562 81.386719 55.261719 81.414062 55.300781 81.441406 C 55.332031 81.464844 55.386719 81.496094 55.417969 81.507812 C 55.6875 81.609375 55.703125 81.871094 55.746094 82.117188 L 55.789062 82.179688 C 55.957031 82.445312 56.261719 82.332031 56.527344 82.394531 C 56.761719 82.453125 56.730469 82.757812 56.71875 82.945312 C 56.683594 83.386719 56.792969 83.730469 57.007812 84.113281 C 57.34375 84.359375 57.664062 84.210938 58.039062 84.1875 C 58.386719 84.164062 58.445312 84.582031 58.476562 84.835938 C 58.617188 85.113281 58.933594 84.992188 59.09375 84.796875 C 59.152344 84.597656 59.160156 84.40625 59.070312 84.214844 C 58.9375 83.945312 59.070312 83.476562 59.277344 83.25 C 59.484375 83.019531 59.515625 82.828125 59.378906 82.542969 C 59.242188 82.261719 59.507812 82.117188 59.734375 82.003906 C 59.933594 81.882812 60.082031 81.734375 60.179688 81.523438 C 60.242188 81.320312 60.320312 81.160156 60.476562 81.007812 C 60.695312 80.792969 60.761719 80.53125 60.539062 80.289062 C 60.460938 80.207031 60.390625 80.121094 60.316406 80.039062 C 60.195312 79.757812 60.273438 79.492188 60.382812 79.222656 C 60.492188 78.960938 60.820312 79.109375 61 79.175781 C 61.140625 79.234375 61.222656 79.300781 61.332031 79.410156 C 61.390625 79.421875 61.433594 79.46875 61.476562 79.503906 C 61.582031 79.597656 61.714844 79.640625 61.84375 79.683594 C 62.078125 79.695312 62.351562 79.566406 62.53125 79.429688 C 62.8125 79.210938 63.015625 78.863281 63.113281 78.523438 C 63.351562 78.285156 63.550781 78.015625 63.753906 77.746094 C 63.925781 77.648438 64.0625 77.472656 64.203125 77.332031 L 64.285156 77.265625 C 64.332031 77.230469 64.398438 77.175781 64.441406 77.140625 C 64.605469 76.996094 64.5 76.789062 64.4375 76.625 C 64.363281 76.382812 64.628906 76.171875 64.730469 75.96875 C 64.847656 75.730469 65.027344 75.679688 65.277344 75.734375 C 65.46875 75.777344 65.664062 75.777344 65.855469 75.734375 C 66.125 75.675781 66.40625 75.699219 66.675781 75.734375 C 66.949219 75.769531 67.175781 75.746094 67.398438 75.597656 C 67.585938 75.515625 67.65625 75.242188 67.710938 75.066406 C 67.796875 74.773438 67.660156 74.46875 67.609375 74.179688 C 67.578125 74.023438 67.539062 73.882812 67.488281 73.734375 C 67.46875 73.5625 67.519531 73.433594 67.558594 73.265625 C 67.597656 73.101562 67.414062 72.871094 67.351562 72.722656 C 67.253906 72.5 67.5 72.589844 67.589844 72.664062 C 67.644531 72.710938 67.699219 72.738281 67.761719 72.761719 C 67.800781 72.808594 67.839844 72.855469 67.878906 72.902344 C 67.890625 73.113281 68.074219 73.257812 68.203125 73.417969 C 68.457031 73.722656 68.757812 73.914062 69.167969 73.921875 C 69.507812 73.929688 69.835938 74.03125 70.167969 74.101562 C 70.261719 74.121094 70.367188 74.148438 70.40625 74.167969 C 70.445312 74.1875 70.566406 74.191406 70.679688 74.179688 C 70.878906 74.164062 71.023438 74.222656 71.203125 74.277344 C 71.617188 74.402344 72.160156 74.511719 72.582031 74.40625 C 72.910156 74.320312 73.25 74.351562 73.574219 74.441406 C 73.773438 74.496094 73.960938 74.371094 74.152344 74.320312 C 74.300781 74.28125 74.433594 74.484375 74.523438 74.570312 C 74.761719 74.738281 75.042969 74.691406 75.316406 74.742188 C 75.410156 74.761719 75.511719 74.765625 75.539062 74.75 C 75.640625 74.699219 75.527344 74.527344 75.480469 74.476562 C 75.417969 74.410156 75.355469 74.34375 75.292969 74.273438 C 75.152344 74.117188 74.949219 73.796875 75.171875 73.632812 C 75.40625 73.464844 75.855469 73.585938 76.078125 73.742188 C 76.449219 74 76.960938 74.023438 77.402344 74.027344 C 77.78125 74.03125 78.238281 74.164062 78.507812 74.433594 L 78.5625 74.453125 C 78.605469 74.472656 78.652344 74.480469 78.699219 74.492188 C 78.785156 74.511719 78.847656 74.546875 78.921875 74.59375 C 79.046875 74.667969 79.164062 74.703125 79.304688 74.742188 L 79.355469 74.78125 C 79.488281 74.882812 79.5625 75.023438 79.648438 75.164062 C 79.714844 75.273438 79.890625 75.34375 80.003906 75.253906 C 80.171875 75.125 80.226562 74.9375 80.261719 74.734375 C 80.300781 74.535156 80.613281 74.488281 80.78125 74.441406 C 80.914062 74.402344 81.003906 74.3125 81.117188 74.238281 C 81.34375 74.085938 81.71875 74.152344 81.957031 74.199219 C 82.304688 74.199219 82.59375 74.105469 82.914062 73.992188 C 83.089844 73.800781 83.339844 73.746094 83.589844 73.84375 C 83.8125 73.929688 84.078125 73.929688 84.308594 73.910156 C 84.507812 73.894531 84.703125 73.925781 84.898438 73.960938 C 85.082031 74.066406 85.191406 74.234375 85.34375 74.382812 C 85.542969 74.585938 85.835938 74.523438 86.082031 74.472656 C 86.195312 74.472656 86.292969 74.480469 86.40625 74.507812 C 86.808594 74.597656 87.1875 74.496094 87.582031 74.457031 C 87.726562 74.441406 87.855469 74.410156 87.996094 74.371094 C 88.121094 74.371094 88.21875 74.386719 88.339844 74.425781 C 88.539062 74.488281 88.792969 74.554688 88.996094 74.460938 C 89.242188 74.347656 89.214844 74.03125 89.214844 73.800781 C 89.214844 73.289062 89.40625 72.773438 89.648438 72.324219 C 89.785156 72.0625 89.558594 71.929688 89.382812 71.792969 C 89.109375 71.585938 88.734375 71.59375 88.410156 71.542969 C 88.183594 71.503906 88.097656 71.414062 87.949219 71.265625 C 87.773438 71.132812 87.578125 71.074219 87.367188 71.011719 C 87.097656 70.9375 86.945312 70.546875 86.832031 70.324219 L 86.773438 70.277344 C 86.582031 70.113281 86.398438 70.289062 86.238281 70.410156 C 86.09375 70.523438 85.816406 70.519531 85.703125 70.367188 C 85.507812 70.09375 85.980469 69.996094 86.160156 69.972656 C 86.457031 69.929688 86.582031 69.851562 86.746094 69.628906 C 86.824219 69.53125 86.898438 69.429688 86.984375 69.339844 C 87.179688 69.125 87.519531 69.382812 87.710938 69.476562 C 87.8125 69.527344 87.914062 69.570312 88.023438 69.601562 C 88.105469 69.683594 88.1875 69.761719 88.273438 69.839844 C 88.519531 70.0625 88.847656 70.046875 89.113281 69.871094 C 89.320312 69.734375 89.558594 69.695312 89.804688 69.765625 C 89.957031 69.8125 90.089844 69.90625 90.214844 70.003906 C 90.3125 70.074219 90.511719 70.101562 90.625 70.0625 C 90.925781 69.949219 91.109375 69.578125 91.324219 69.363281 C 91.367188 69.320312 91.417969 69.289062 91.46875 69.253906 C 91.769531 69.023438 92.148438 69.007812 92.515625 68.953125 C 92.574219 68.929688 92.632812 68.90625 92.695312 68.878906 L 93.035156 68.539062 C 93.226562 68.292969 93.246094 68.023438 93.167969 67.730469 C 93.109375 67.664062 93.050781 67.597656 93.015625 67.523438 C 92.96875 67.429688 93.140625 67.46875 93.214844 67.464844 C 93.480469 67.449219 93.6875 67.402344 93.851562 67.195312 C 93.902344 67.132812 93.953125 67.070312 94.003906 67.007812 C 94.09375 66.898438 94.195312 66.777344 94.335938 66.722656 C 94.382812 66.703125 94.414062 66.683594 94.480469 66.632812 C 94.65625 66.488281 94.867188 66.441406 95.089844 66.425781 C 95.261719 66.46875 95.460938 66.445312 95.605469 66.328125 C 95.65625 66.285156 95.691406 66.261719 95.707031 66.261719 C 95.769531 66.25 95.839844 66.167969 95.890625 66.128906 C 96.203125 65.914062 96.457031 65.628906 96.71875 65.351562 L 96.785156 65.328125 C 96.976562 65.253906 97.15625 65.039062 97.15625 64.832031 C 97.15625 64.503906 96.753906 64.449219 96.515625 64.417969 C 96.359375 64.402344 96.132812 64.347656 96.011719 64.300781 C 95.757812 64.203125 95.5625 64.179688 95.292969 64.179688 C 95.132812 64.179688 94.941406 64.167969 94.863281 64.148438 C 94.789062 64.128906 94.6875 64.082031 94.644531 64.046875 C 94.316406 63.765625 93.863281 63.703125 93.449219 63.769531 C 93.171875 63.816406 92.964844 63.769531 92.714844 63.667969 C 92.503906 63.667969 92.320312 63.742188 92.117188 63.804688 C 91.957031 63.804688 91.820312 63.757812 91.675781 63.699219 C 91.441406 63.667969 91.214844 63.625 91 63.53125 C 90.914062 63.496094 90.855469 63.433594 90.78125 63.375 C 90.476562 63.144531 90.214844 63.351562 89.890625 63.449219 C 89.574219 63.542969 89.410156 63.460938 89.125 63.308594 C 88.925781 63.203125 88.875 63.191406 88.628906 63.191406 C 88.441406 63.191406 88.257812 63.191406 88.125 63.054688 C 88.035156 62.96875 87.941406 62.914062 87.832031 62.859375 C 87.683594 62.691406 87.535156 62.535156 87.378906 62.378906 L 87.339844 62.328125 C 87.269531 62.226562 87.21875 62.105469 87.171875 61.988281 C 87.082031 61.761719 86.789062 61.742188 86.570312 61.78125 C 86.378906 61.816406 86.304688 61.652344 86.273438 61.488281 C 86.238281 61.308594 86.230469 61.136719 86.222656 60.957031 C 86.214844 60.765625 86.214844 60.578125 86.226562 60.535156 C 86.273438 60.378906 86.183594 60.152344 86.152344 59.992188 C 86.148438 59.628906 86.160156 59.234375 86.335938 58.90625 C 86.425781 58.738281 86.417969 58.566406 86.402344 58.382812 C 86.371094 58.066406 86.476562 57.863281 86.59375 57.589844 C 86.640625 57.476562 86.597656 57.375 86.550781 57.273438 C 86.449219 57.054688 86.417969 56.765625 86.488281 56.53125 C 86.546875 56.324219 86.871094 56.105469 87.054688 56.28125 C 87.242188 56.460938 87.179688 56.792969 87.035156 56.972656 C 86.992188 57.027344 86.96875 57.0625 86.964844 57.074219 C 86.964844 57.085938 86.9375 57.125 86.910156 57.160156 C 86.816406 57.289062 86.691406 57.492188 86.847656 57.605469 C 87.101562 57.789062 87.265625 57.429688 87.46875 57.332031 C 87.59375 57.277344 87.726562 57.238281 87.855469 57.195312 C 88.09375 57.070312 88.183594 56.917969 88.328125 56.699219 C 88.429688 56.546875 88.726562 56.777344 88.828125 56.828125 C 89.238281 56.902344 89.464844 56.542969 89.503906 56.1875 C 89.539062 55.871094 89.757812 55.703125 89.96875 55.488281 C 90.078125 55.347656 90.132812 55.183594 90.171875 55.011719 C 90.210938 54.835938 90.277344 54.707031 90.480469 54.707031 C 90.757812 54.707031 90.785156 54.949219 90.761719 55.175781 C 90.738281 55.433594 90.886719 55.753906 91.203125 55.628906 C 91.472656 55.519531 91.585938 55.351562 91.648438 55.066406 C 91.664062 54.992188 91.730469 54.890625 91.820312 54.925781 C 91.859375 54.9375 91.890625 55.027344 91.925781 55.203125 C 91.953125 55.34375 92.003906 55.496094 92.042969 55.542969 C 92.085938 55.59375 92.109375 55.632812 92.109375 55.644531 C 92.132812 55.761719 92.332031 55.917969 92.417969 56.003906 C 92.554688 56.140625 92.925781 56.328125 93.039062 56.046875 C 93.121094 55.851562 92.859375 55.789062 92.75 55.699219 C 92.453125 55.457031 92.8125 55.222656 93 55.058594 C 93.265625 54.828125 93.375 55.082031 93.609375 55.183594 C 93.761719 55.25 93.828125 55.210938 93.945312 55.128906 C 94.140625 54.992188 94.0625 54.601562 94.035156 54.429688 C 93.984375 54.09375 94 53.785156 94.15625 53.476562 C 94.226562 53.332031 94.269531 53.191406 94.296875 53.035156 L 94.359375 52.902344 C 94.460938 52.695312 94.398438 52.570312 94.308594 52.371094 C 94.136719 51.984375 93.753906 51.902344 93.429688 51.679688 C 93.195312 51.515625 93.171875 51.1875 93.265625 50.941406 C 93.425781 50.507812 93.390625 50.015625 93.441406 49.566406 C 93.460938 49.496094 93.488281 49.433594 93.523438 49.375 C 93.671875 49.140625 93.703125 48.945312 93.628906 48.675781 C 93.433594 47.933594 93.816406 47.183594 93.980469 46.464844 C 94.046875 46.15625 93.863281 45.84375 93.742188 45.570312 C 93.535156 45.210938 93.460938 44.640625 93.539062 44.234375 C 93.625 43.785156 93.484375 43.152344 93.15625 42.808594 C 93.003906 42.648438 92.902344 42.523438 92.8125 42.324219 C 92.746094 42.1875 92.664062 42.074219 92.558594 41.964844 C 92.519531 41.753906 92.117188 41.734375 91.953125 41.6875 C 91.613281 41.585938 91.277344 41.542969 90.921875 41.519531 C 90.851562 41.496094 90.78125 41.472656 90.710938 41.449219 L 90.628906 41.382812 C 90.578125 41.34375 90.53125 41.308594 90.476562 41.28125 C 90.261719 41.121094 90.003906 41.039062 89.753906 40.9375 L 89.628906 40.855469 C 89.367188 40.691406 89.289062 40.503906 89.242188 40.207031 C 89.195312 39.863281 89.046875 39.589844 88.800781 39.347656 C 88.554688 39.105469 88.5 38.867188 88.394531 38.550781 C 88.332031 38.363281 88.234375 38.207031 88.125 38.042969 C 88.035156 37.90625 87.953125 37.757812 88.019531 37.589844 C 88.136719 37.300781 88.347656 37.101562 88.652344 37.054688 C 89.085938 36.988281 89.28125 36.660156 89.40625 36.269531 C 89.46875 36.0625 89.5625 36.011719 89.773438 36.003906 C 89.878906 36 90.058594 36.011719 90.171875 36.03125 C 90.433594 36.070312 90.515625 36.175781 90.660156 36.371094 C 90.777344 36.523438 90.925781 36.65625 91.070312 36.78125 C 91.261719 36.941406 91.4375 37.121094 91.601562 37.308594 C 91.734375 37.464844 91.886719 37.589844 92.042969 37.71875 C 92.164062 37.816406 92.269531 37.929688 92.378906 38.039062 C 92.480469 38.140625 92.597656 38.183594 92.738281 38.210938 C 92.847656 38.230469 92.953125 38.257812 93.050781 38.308594 C 93.113281 38.386719 93.164062 38.449219 93.195312 38.546875 C 93.265625 38.765625 93.550781 38.859375 93.746094 38.929688 C 93.875 38.972656 93.9375 39.058594 94.042969 39.144531 C 94.136719 39.21875 94.253906 39.257812 94.363281 39.308594 L 94.515625 39.460938 C 94.632812 39.578125 94.699219 39.71875 94.78125 39.859375 C 95.066406 40.324219 95.640625 40.203125 96.097656 40.359375 C 96.15625 40.378906 96.242188 40.417969 96.289062 40.445312 C 96.695312 40.683594 96.949219 40.25 97.148438 39.964844 C 97.296875 39.664062 97.632812 39.578125 97.949219 39.523438 C 98.164062 39.484375 98.246094 39.625 98.347656 39.78125 C 98.53125 40.128906 98.855469 40.429688 99.253906 40.429688 C 99.546875 40.429688 99.789062 40.285156 100.058594 40.191406 C 100.167969 40.152344 100.320312 40.089844 100.398438 40.054688 C 100.730469 39.890625 100.972656 40.136719 101.277344 40.226562 C 101.507812 40.292969 101.710938 40.269531 101.878906 40.101562 C 101.984375 39.992188 102.070312 39.875 102.15625 39.75 C 102.265625 39.644531 102.378906 39.601562 102.519531 39.542969 C 102.753906 39.449219 102.878906 39.078125 102.964844 38.859375 C 103.011719 38.738281 103.09375 38.648438 103.183594 38.558594 C 103.203125 38.519531 103.222656 38.480469 103.242188 38.4375 C 103.296875 38.300781 103.492188 38.179688 103.597656 38.074219 C 103.8125 37.796875 103.90625 37.289062 103.648438 37.003906 C 103.425781 36.761719 103.175781 36.554688 102.878906 36.40625 C 102.769531 36.351562 102.671875 36.28125 102.578125 36.203125 C 102.421875 36.140625 102.277344 36.066406 102.148438 35.960938 C 102.089844 35.914062 102.046875 35.886719 102.003906 35.867188 C 101.675781 35.710938 101.6875 35.242188 101.582031 34.9375 C 101.515625 34.816406 101.472656 34.695312 101.449219 34.558594 C 101.414062 34.34375 101.351562 34.117188 101.179688 33.976562 C 100.917969 33.765625 100.71875 33.492188 100.597656 33.183594 C 100.417969 32.730469 99.796875 32.453125 99.347656 32.453125 C 99.246094 32.453125 99.09375 32.429688 99.007812 32.402344 C 98.761719 32.320312 98.394531 32.339844 98.191406 32.527344 C 98.074219 32.636719 98.074219 32.863281 98.050781 33.011719 C 97.960938 33.023438 97.871094 33.03125 97.78125 33.039062 C 97.574219 32.9375 97.332031 33.214844 97.261719 33.382812 C 97.074219 33.824219 96.546875 33.988281 96.097656 33.988281 C 95.871094 33.988281 95.847656 33.765625 95.925781 33.613281 C 96.015625 33.433594 96.085938 33.246094 96.136719 33.054688 C 96.214844 32.730469 95.949219 32.570312 95.722656 32.417969 C 95.402344 32.195312 95.058594 32.289062 94.765625 32.507812 C 94.589844 32.640625 94.417969 32.699219 94.1875 32.675781 C 93.96875 32.652344 93.753906 32.730469 93.546875 32.789062 C 93.417969 32.800781 93.300781 32.714844 93.242188 32.605469 C 92.976562 32.445312 92.671875 32.511719 92.378906 32.554688 C 92.164062 32.554688 91.964844 32.519531 91.769531 32.421875 C 91.65625 32.363281 91.550781 32.339844 91.425781 32.3125 C 91.226562 32.195312 91.011719 32.136719 90.78125 32.097656 C 90.675781 32.078125 90.574219 32.042969 90.472656 32.007812 C 90.25 31.886719 90.003906 31.867188 89.753906 31.839844 C 89.632812 31.804688 89.507812 31.773438 89.382812 31.738281 L 89.296875 31.6875 C 89.128906 31.585938 88.972656 31.457031 88.820312 31.335938 C 88.636719 31.222656 88.476562 31.074219 88.316406 30.933594 C 88.1875 30.867188 88.058594 30.796875 87.933594 30.722656 C 87.78125 30.554688 87.703125 30.371094 87.609375 30.167969 C 87.570312 30.121094 87.535156 30.078125 87.5 30.035156 C 87.238281 29.804688 87.085938 29.960938 86.886719 30.183594 C 86.820312 30.257812 86.679688 30.253906 86.617188 30.179688 C 86.511719 30.058594 86.535156 29.914062 86.554688 29.761719 C 86.605469 29.433594 86.625 29.097656 86.625 28.769531 C 86.625 28.496094 86.71875 28.234375 86.855469 28.003906 C 87.050781 27.832031 87.109375 27.609375 86.933594 27.394531 C 86.789062 27.214844 86.761719 27.050781 86.761719 26.832031 C 86.761719 26.6875 86.746094 26.53125 86.6875 26.402344 C 86.621094 26.257812 86.5625 26.085938 86.554688 25.925781 C 86.550781 25.800781 86.453125 25.679688 86.390625 25.574219 C 86.355469 25.421875 86.320312 25.273438 86.285156 25.121094 C 86.285156 24.855469 86.542969 24.535156 86.691406 24.308594 C 86.820312 24.113281 86.863281 23.789062 86.585938 23.691406 C 86.488281 23.585938 86.378906 23.546875 86.246094 23.488281 L 86.195312 23.4375 C 86.148438 23.390625 86.136719 23.378906 86.09375 23.34375 C 86.019531 23.285156 86.003906 23.164062 85.976562 23.078125 C 85.976562 22.585938 85.804688 22.054688 85.449219 21.710938 C 85.183594 21.449219 85.164062 21.183594 85.125 20.828125 C 85.101562 20.761719 85.078125 20.691406 85.054688 20.625 C 84.988281 20.464844 84.921875 20.308594 84.855469 20.15625 C 84.726562 19.71875 84.75 19.25 84.75 18.800781 C 84.75 18.445312 84.496094 18.1875 84.167969 18.105469 C 84.007812 18.105469 83.851562 18.125 83.695312 18.144531 C 83.417969 18.0625 83.261719 18.335938 83.109375 18.519531 C 82.957031 18.695312 82.851562 18.871094 82.773438 19.09375 C 82.734375 19.203125 82.652344 19.285156 82.574219 19.363281 L 82.554688 19.414062 C 82.5 19.558594 82.449219 19.699219 82.398438 19.84375 C 82.355469 19.972656 82.285156 20.0625 82.195312 20.160156 C 82.023438 20.351562 81.90625 20.625 81.820312 20.867188 C 81.703125 21.035156 81.511719 21.089844 81.304688 21.054688 C 81.113281 21.023438 80.886719 21.097656 80.699219 21.136719 C 80.371094 21.152344 80.191406 20.941406 79.976562 20.726562 C 79.757812 20.464844 79.550781 20.292969 79.238281 20.140625 C 78.9375 19.988281 78.816406 19.945312 78.691406 19.945312 C 78.421875 19.945312 78.367188 20.070312 78.304688 20.296875 C 78.234375 20.558594 78.035156 20.484375 77.882812 20.320312 C 77.722656 20.144531 77.757812 19.867188 77.800781 19.648438 C 77.847656 19.398438 77.769531 19.140625 77.46875 19.230469 C 77.375 19.257812 77.285156 19.28125 77.191406 19.300781 C 77.058594 19.328125 76.894531 19.371094 76.8125 19.484375 C 76.75 19.574219 76.683594 19.660156 76.609375 19.742188 C 76.464844 19.90625 76.265625 19.597656 76.125 19.539062 C 75.734375 19.367188 75.296875 19.65625 74.929688 19.738281 C 74.84375 19.757812 74.738281 19.820312 74.660156 19.898438 C 74.480469 20.070312 74.398438 19.984375 74.320312 19.792969 C 74.320312 19.703125 74.328125 19.621094 74.355469 19.535156 C 74.480469 19.15625 74.128906 18.730469 73.878906 18.480469 C 73.726562 18.332031 73.488281 18.25 73.304688 18.394531 C 73.058594 18.582031 73.097656 18.976562 73.292969 19.1875 C 73.488281 19.394531 73.574219 19.683594 73.445312 19.960938 C 73.359375 20.140625 73.191406 20.261719 73.046875 20.390625 C 72.789062 20.625 72.464844 20.160156 72.386719 19.917969 C 72.335938 19.765625 72.226562 19.535156 72.023438 19.605469 C 71.875 19.65625 71.796875 19.8125 71.734375 19.941406 C 71.628906 20.164062 71.472656 20.554688 71.558594 20.804688 C 71.648438 21.0625 71.847656 21.097656 72.070312 21.207031 C 72.414062 21.367188 72.5625 21.597656 72.625 21.960938 C 72.65625 22.152344 72.691406 22.34375 72.785156 22.515625 C 72.859375 22.652344 72.941406 22.9375 72.738281 23.019531 C 72.625 23.066406 72.464844 23.0625 72.347656 23.027344 C 72.222656 22.992188 72.035156 23.105469 71.917969 23.148438 C 71.695312 23.226562 71.429688 22.960938 71.25 22.839844 C 70.996094 22.644531 70.71875 22.660156 70.40625 22.636719 C 70.0625 22.570312 69.710938 22.546875 69.359375 22.589844 C 69.085938 22.625 68.804688 22.445312 68.578125 22.296875 C 68.484375 22.234375 68.394531 22.1875 68.289062 22.144531 C 68.160156 22.09375 68.039062 22.027344 67.917969 21.960938 L 67.828125 21.921875 C 67.691406 21.867188 67.675781 21.71875 67.675781 21.585938 C 67.675781 21.292969 67.511719 21.25 67.261719 21.324219 C 67.164062 21.355469 67.074219 21.378906 66.972656 21.394531 C 66.777344 21.421875 66.402344 21.410156 66.230469 21.300781 C 65.984375 21.136719 66.046875 20.699219 65.972656 20.445312 C 65.863281 20.078125 65.308594 20.117188 65.015625 20.011719 C 64.753906 19.917969 64.722656 19.582031 64.675781 19.339844 C 64.625 19.28125 64.574219 19.222656 64.523438 19.167969 C 64.328125 18.9375 64.316406 18.527344 64.628906 18.421875 C 64.746094 18.382812 64.921875 18.1875 64.765625 18.074219 C 64.632812 17.980469 64.433594 18.089844 64.316406 18.148438 C 64.195312 18.207031 64.042969 18.261719 63.976562 18.269531 C 63.792969 18.292969 63.652344 18.101562 63.515625 18 C 63.210938 17.894531 63.023438 17.644531 62.800781 17.421875 C 62.621094 17.285156 62.453125 17.242188 62.226562 17.226562 C 62.078125 17.21875 61.941406 17.199219 61.917969 17.179688 C 61.875 17.144531 61.832031 17.109375 61.789062 17.074219 C 61.734375 16.871094 61.652344 16.683594 61.558594 16.496094 C 61.472656 16.324219 61.382812 16.121094 61.371094 15.925781 C 61.351562 15.554688 60.800781 15.644531 60.589844 15.75 C 60.363281 15.824219 60.179688 15.597656 60.003906 15.476562 C 59.941406 15.429688 59.875 15.382812 59.800781 15.34375 C 59.65625 15.273438 59.703125 15.023438 59.722656 14.890625 C 59.785156 14.445312 59.292969 14.425781 59.054688 14.1875 C 58.941406 14.074219 58.824219 13.984375 58.679688 13.914062 C 58.601562 13.875 58.527344 13.832031 58.457031 13.777344 C 58.371094 13.707031 58.28125 13.664062 58.179688 13.613281 C 57.941406 13.496094 57.792969 13.304688 57.640625 13.097656 C 57.558594 12.988281 57.484375 12.925781 57.359375 12.863281 C 57.304688 12.785156 57.257812 12.707031 57.214844 12.621094 C 57.179688 12.550781 57.144531 12.484375 57.128906 12.46875 C 57.105469 12.441406 57.082031 12.410156 57.058594 12.382812 C 56.910156 12.1875 57.167969 11.917969 57.316406 11.800781 C 57.398438 11.746094 57.476562 11.691406 57.554688 11.632812 C 57.636719 11.578125 57.710938 11.523438 57.789062 11.464844 C 57.855469 11.417969 57.917969 11.371094 57.980469 11.324219 C 58.113281 11.210938 58.28125 11.152344 58.441406 11.085938 C 58.757812 10.953125 58.964844 10.707031 58.976562 10.363281 C 58.988281 10.089844 59.058594 9.882812 59.179688 9.644531 C 59.296875 9.519531 59.417969 9.390625 59.535156 9.261719 C 59.855469 8.917969 59.8125 8.164062 59.480469 7.832031 C 59.351562 7.703125 59.289062 7.53125 59.210938 7.371094 C 58.941406 6.835938 59.019531 6.179688 58.984375 5.59375 L 58.984375 5.503906 C 58.984375 5.132812 58.453125 5.066406 58.324219 5.40625 C 58.160156 5.84375 57.746094 5.589844 57.433594 5.5 C 57.246094 5.441406 56.949219 5.472656 56.90625 5.730469 C 56.886719 5.835938 56.722656 5.910156 56.632812 5.957031 C 56.292969 6.136719 56.5625 6.574219 56.640625 6.828125 C 56.765625 7.246094 56.246094 7.347656 55.949219 7.460938 C 55.855469 7.496094 55.726562 7.554688 55.757812 7.679688 C 55.785156 7.785156 55.980469 7.75 56.0625 7.730469 C 56.195312 7.695312 56.363281 7.78125 56.484375 7.832031 C 56.703125 7.929688 57.003906 8.179688 56.9375 8.445312 C 56.832031 8.859375 56.257812 8.808594 55.953125 8.753906 C 55.636719 8.695312 55.253906 8.65625 54.9375 8.734375 C 54.550781 8.828125 54.3125 9.027344 54.183594 9.414062 C 54.082031 9.789062 53.679688 10.042969 53.34375 10.207031 C 53.117188 10.320312 52.90625 10.5 52.792969 10.730469 C 52.742188 10.828125 52.605469 10.984375 52.484375 10.984375 C 52.335938 10.984375 52.183594 10.710938 52.097656 10.605469 C 52.042969 10.53125 51.988281 10.457031 51.976562 10.363281 C 51.910156 9.890625 51.4375 9.421875 50.949219 9.597656 C 50.554688 9.742188 50.675781 10.285156 50.570312 10.613281 C 50.476562 10.886719 50.230469 10.996094 49.96875 10.8125 C 49.710938 10.632812 49.695312 10.378906 49.746094 10.09375 C 49.820312 9.703125 50.128906 9.671875 50.46875 9.585938 C 50.6875 9.503906 50.75 9.1875 50.667969 8.984375 C 50.609375 8.839844 50.488281 8.75 50.371094 8.65625 C 50.269531 8.421875 50.160156 7.996094 50.398438 7.796875 C 50.519531 7.695312 50.675781 7.65625 50.824219 7.609375 C 51.195312 7.488281 51.265625 7.230469 51.132812 6.890625 C 50.730469 6.535156 50.113281 6.636719 49.652344 6.824219 C 49.453125 7.097656 49.410156 7.464844 49.308594 7.785156 C 49.132812 8.214844 48.625 8.160156 48.253906 8.339844 C 48.101562 8.414062 47.929688 8.496094 47.757812 8.496094 C 47.578125 8.496094 47.546875 8.246094 47.507812 8.121094 C 47.4375 7.902344 47.402344 7.789062 47.574219 7.621094 C 47.640625 7.554688 47.71875 7.449219 47.75 7.382812 C 47.859375 7.148438 47.835938 6.957031 47.671875 6.792969 C 47.617188 6.738281 47.566406 6.6875 47.507812 6.636719 C 47.199219 6.371094 47.503906 5.964844 47.621094 5.679688 C 47.648438 5.609375 47.671875 5.511719 47.671875 5.460938 C 47.671875 5.15625 47.203125 5.261719 47.011719 5.195312 C 46.746094 5.097656 46.847656 4.683594 46.785156 4.457031 C 46.722656 4.230469 46.574219 4.011719 46.304688 4.097656 C 46.152344 4.148438 46.019531 4.265625 45.894531 4.363281 C 45.652344 4.546875 45.265625 4.480469 44.984375 4.445312 C 44.617188 4.394531 44.464844 4.089844 44.550781 3.730469 C 44.5625 3.6875 44.554688 3.5625 44.535156 3.453125 C 44.5 3.253906 44.539062 3.105469 44.632812 2.929688 C 44.714844 2.769531 44.753906 2.421875 44.683594 2.253906 C 44.628906 2.125 44.496094 2.238281 44.457031 2.320312 C 44.265625 2.699219 43.707031 2.742188 43.339844 2.667969 C 43.007812 2.601562 42.804688 2.855469 42.671875 3.128906 C 42.628906 3.214844 42.445312 3.441406 42.339844 3.40625 C 42.296875 3.390625 42.289062 3.320312 42.289062 2.992188 C 42.289062 2.773438 42.273438 2.554688 42.257812 2.503906 C 42.214844 2.355469 41.933594 2.1875 41.890625 2.433594 C 41.875 2.511719 41.886719 2.582031 41.898438 2.664062 C 41.949219 3.078125 41.554688 3.167969 41.238281 3.253906 C 41.144531 3.222656 41.105469 3.175781 41.039062 3.101562 C 40.878906 2.921875 40.714844 2.746094 40.550781 2.570312 C 40.246094 2.226562 39.648438 2.394531 39.25 2.464844 C 39 2.59375 39.101562 2.875 39.210938 3.082031 C 39.308594 3.265625 39.386719 3.613281 39.199219 3.761719 C 39.0625 3.867188 38.796875 3.890625 38.636719 3.933594 C 38.472656 4.011719 38.3125 3.964844 38.136719 3.964844 C 37.902344 3.964844 37.847656 4.195312 37.730469 4.339844 C 37.582031 4.515625 37.335938 4.675781 37.117188 4.722656 C 36.863281 4.78125 36.902344 5.203125 36.851562 5.398438 C 36.796875 5.589844 36.621094 5.730469 36.488281 5.859375 C 36.273438 6.070312 35.898438 6.289062 35.585938 6.132812 C 35.414062 6.046875 35.386719 5.824219 35.378906 5.65625 C 35.363281 5.339844 35.382812 5.007812 35.460938 4.699219 C 35.507812 4.5 35.503906 4.273438 35.394531 4.09375 C 35.15625 3.703125 34.714844 4.03125 34.382812 4.03125 C 34.09375 4.03125 34.117188 3.617188 34.109375 3.414062 C 34.125 3.25 34.140625 3.085938 34.121094 2.917969 C 34.105469 2.726562 34.125 2.519531 34.214844 2.351562 C 34.3125 2.28125 34.394531 2.25 34.511719 2.214844 C 34.855469 2.117188 34.957031 1.835938 34.859375 1.496094 C 34.761719 1.160156 34.578125 1.066406 34.273438 0.96875 Z M 34.273438 0.96875 " fill-opacity="1" fill-rule="evenodd"/></g><path fill="#cb6ce6" d="M 62.042969 85.679688 C 61.75 85.539062 61.464844 85.617188 61.160156 85.617188 C 60.898438 85.617188 60.390625 85.636719 60.234375 85.90625 C 60.191406 85.976562 60.152344 86.050781 60.117188 86.125 C 60.105469 86.234375 60.023438 86.289062 59.945312 86.363281 L 59.933594 86.402344 C 59.898438 86.519531 59.742188 86.625 59.65625 86.710938 L 59.394531 86.984375 C 59.28125 87.113281 59.167969 87.246094 59.054688 87.371094 C 58.933594 87.507812 58.828125 87.648438 58.71875 87.796875 C 58.660156 87.867188 58.574219 87.902344 58.492188 87.945312 C 58.144531 88.117188 57.972656 88.539062 58.019531 88.914062 C 58.035156 89.066406 57.996094 89.222656 57.894531 89.335938 C 57.832031 89.417969 57.785156 89.480469 57.753906 89.578125 C 57.621094 90.03125 57.839844 90.417969 57.933594 90.84375 L 57.972656 90.90625 C 58.105469 91.117188 58.351562 91.15625 58.585938 91.179688 C 58.742188 91.195312 58.890625 91.222656 59.035156 91.28125 C 59.210938 91.445312 59.292969 91.671875 59.34375 91.90625 C 59.433594 92.332031 59.902344 92.144531 60.230469 92.246094 C 60.261719 92.253906 60.308594 92.277344 60.332031 92.296875 C 60.601562 92.496094 61.050781 92.535156 61.375 92.535156 C 61.535156 92.535156 61.714844 92.472656 61.832031 92.371094 C 61.894531 92.320312 61.921875 92.300781 61.933594 92.296875 C 61.992188 92.289062 62.050781 92.207031 62.09375 92.167969 C 62.296875 91.984375 62.617188 91.980469 62.820312 92.15625 C 62.953125 92.269531 63.097656 92.34375 63.265625 92.386719 C 63.648438 92.480469 63.71875 91.949219 63.886719 91.75 C 63.972656 91.644531 64.0625 91.574219 64.199219 91.542969 C 64.320312 91.515625 64.492188 91.472656 64.527344 91.332031 C 64.566406 91.164062 64.394531 90.964844 64.308594 90.835938 C 64.261719 90.746094 64.226562 90.65625 64.203125 90.554688 C 64.183594 90.480469 64.136719 90.351562 64.09375 90.269531 C 63.960938 89.996094 64.019531 89.742188 64.199219 89.507812 C 64.375 89.285156 64.398438 89.046875 64.433594 88.765625 C 64.460938 88.53125 64.515625 88.242188 64.550781 88.125 C 64.609375 87.941406 64.625 87.699219 64.4375 87.589844 C 64.308594 87.492188 64.171875 87.425781 64.03125 87.355469 C 63.90625 87.292969 63.824219 87.21875 63.726562 87.121094 C 63.632812 87.070312 63.542969 87.007812 63.453125 86.945312 C 63.21875 86.859375 63.0625 86.609375 62.890625 86.4375 C 62.472656 86 62.429688 85.957031 62.378906 85.90625 C 62.28125 85.808594 62.167969 85.742188 62.042969 85.679688 Z M 62.042969 85.679688 " fill-opacity="1" fill-rule="evenodd"/><g clip-path="url(#9ae1255d92)"><path fill="#cb6ce6" d="M 51.890625 99.464844 C 51.765625 99.367188 51.523438 99.363281 51.394531 99.449219 C 51.335938 99.59375 51.300781 99.722656 51.28125 99.878906 C 51.234375 100.230469 51.105469 100.382812 50.796875 100.523438 C 50.613281 100.605469 50.460938 100.722656 50.445312 100.9375 C 50.425781 101.15625 50.492188 101.375 50.574219 101.574219 C 50.632812 101.726562 50.636719 101.769531 50.601562 101.910156 C 50.523438 102.234375 50.785156 102.550781 50.914062 102.832031 L 50.96875 102.898438 L 51.027344 102.96875 C 51.066406 102.992188 51.105469 103.019531 51.144531 103.046875 C 51.351562 103.207031 51.675781 103.234375 51.878906 103.066406 C 52.050781 102.929688 52.269531 102.867188 52.476562 102.8125 C 52.824219 102.722656 52.953125 102.289062 53.007812 101.988281 C 53.082031 101.574219 53.207031 101.121094 53.398438 100.742188 C 53.511719 100.515625 53.546875 100.246094 53.28125 100.085938 C 53.101562 99.980469 52.933594 99.992188 52.738281 100.015625 C 52.363281 100.066406 52.148438 99.660156 51.890625 99.464844 Z M 51.890625 99.464844 " fill-opacity="1" fill-rule="evenodd"/></g><path fill="#cb6ce6" d="M 41.0625 92.109375 C 40.871094 91.960938 40.609375 91.980469 40.429688 92.125 C 40.308594 92.226562 40.160156 92.265625 40 92.246094 C 39.550781 92.1875 39.332031 92.648438 39.039062 92.910156 C 38.835938 93.089844 38.792969 93.4375 38.726562 93.6875 C 38.636719 94.039062 38.667969 94.335938 38.824219 94.648438 C 38.890625 94.777344 38.949219 94.898438 38.996094 95.035156 C 39.136719 95.476562 39.667969 95.28125 40.003906 95.3125 C 40.230469 95.335938 40.296875 95.28125 40.457031 95.136719 C 40.695312 95.042969 40.847656 94.851562 41.027344 94.667969 C 41.1875 94.507812 41.335938 94.351562 41.398438 94.132812 L 41.398438 93.996094 C 41.351562 93.785156 41.328125 93.644531 41.425781 93.4375 C 41.5625 93.148438 41.605469 92.765625 41.453125 92.472656 C 41.375 92.3125 41.203125 92.21875 41.0625 92.109375 Z M 41.0625 92.109375 " fill-opacity="1" fill-rule="evenodd"/><path fill="#cb6ce6" d="M 69.257812 81.320312 L 69.140625 81.289062 L 69.039062 81.289062 C 68.976562 81.316406 68.933594 81.324219 68.863281 81.324219 C 68.59375 81.324219 68.425781 81.523438 68.257812 81.703125 C 68.066406 81.902344 67.839844 81.921875 67.582031 81.945312 C 67.367188 81.964844 67.132812 81.996094 66.949219 82.117188 C 66.816406 82.203125 66.820312 82.402344 66.808594 82.535156 C 66.796875 82.640625 66.769531 82.785156 66.738281 82.855469 C 66.695312 82.96875 66.671875 83.085938 66.652344 83.203125 C 66.585938 83.378906 66.601562 83.542969 66.722656 83.691406 C 66.8125 83.800781 66.882812 83.929688 66.960938 84.050781 C 67.140625 84.457031 67.628906 84.042969 67.902344 83.980469 C 67.980469 83.964844 68.058594 83.945312 68.132812 83.914062 C 68.40625 83.804688 68.683594 83.503906 68.785156 83.246094 C 68.835938 83.125 68.894531 82.984375 68.921875 82.9375 C 69.015625 82.78125 69.058594 82.589844 69.113281 82.414062 C 69.179688 82.335938 69.25 82.253906 69.316406 82.171875 C 69.523438 81.902344 69.6875 81.425781 69.257812 81.320312 Z M 69.257812 81.320312 " fill-opacity="1" fill-rule="evenodd"/><path fill="#cb6ce6" d="M 8.324219 44.976562 C 8.089844 44.878906 7.960938 44.953125 7.730469 44.960938 C 7.652344 44.960938 7.542969 44.984375 7.488281 45.011719 C 7.433594 45.039062 7.289062 45.0625 7.167969 45.0625 C 6.894531 45.0625 6.828125 45.179688 6.820312 45.445312 C 6.8125 45.617188 6.800781 45.785156 6.789062 45.957031 C 6.773438 46.164062 6.769531 46.40625 6.910156 46.578125 C 6.953125 46.628906 6.980469 46.671875 6.992188 46.734375 C 7.058594 46.773438 7.121094 46.824219 7.1875 46.871094 C 7.5 46.949219 7.753906 47.117188 8.039062 47.257812 C 8.355469 47.417969 8.675781 47.039062 8.882812 46.851562 C 9.058594 46.691406 9.105469 46.488281 9.039062 46.253906 C 8.988281 46.078125 8.945312 45.890625 8.972656 45.707031 C 9.023438 45.410156 8.878906 45.175781 8.609375 45.085938 C 8.511719 45.050781 8.417969 45.015625 8.324219 44.976562 Z M 8.324219 44.976562 " fill-opacity="1" fill-rule="evenodd"/><path fill="#cb6ce6" d="M 50.6875 88.183594 C 50.320312 88.011719 49.972656 88.199219 49.609375 88.246094 C 49.496094 88.261719 49.371094 88.304688 49.324219 88.34375 C 49.273438 88.386719 49.238281 88.410156 49.222656 88.410156 C 49.117188 88.429688 49 88.644531 48.964844 88.730469 C 48.898438 88.882812 48.917969 88.992188 48.964844 89.152344 C 49.199219 89.359375 49.117188 89.640625 49.199219 89.90625 C 49.285156 90.175781 49.636719 90.15625 49.851562 90.25 C 50.046875 90.335938 50.21875 90.390625 50.414062 90.304688 C 50.820312 90.140625 51.109375 89.832031 51.15625 89.390625 C 51.207031 88.9375 51.132812 88.390625 50.6875 88.183594 Z M 50.6875 88.183594 " fill-opacity="1" fill-rule="evenodd"/><path fill="#cb6ce6" d="M 75.035156 83.78125 C 74.640625 83.609375 74.203125 83.976562 73.859375 84.117188 C 73.527344 84.257812 73.839844 84.730469 73.941406 84.933594 C 74 85.050781 74.058594 85.171875 74.113281 85.289062 C 74.199219 85.484375 74.359375 85.5625 74.523438 85.683594 C 74.585938 85.746094 74.621094 85.84375 74.660156 85.921875 C 74.707031 86.019531 74.785156 86.164062 74.914062 86.164062 C 75.007812 86.164062 75.144531 86.097656 75.183594 86.015625 C 75.28125 85.8125 75.53125 85.636719 75.6875 85.480469 C 75.789062 85.347656 75.855469 85.222656 75.855469 85.054688 C 75.855469 84.535156 75.539062 84.257812 75.210938 83.917969 C 75.15625 83.855469 75.113281 83.8125 75.035156 83.78125 Z M 75.035156 83.78125 " fill-opacity="1" fill-rule="evenodd"/><g clip-path="url(#6386d5a091)"><path fill="#cb6ce6" d="M 106.378906 61.085938 C 106.105469 60.878906 105.796875 61.128906 105.535156 61.203125 C 105.164062 61.304688 105.105469 61.835938 105.0625 62.140625 C 105.0625 62.734375 105.808594 62.921875 106.25 63.054688 C 106.546875 63.023438 106.585938 62.714844 106.691406 62.484375 C 106.90625 61.996094 106.8125 61.414062 106.378906 61.085938 Z M 106.378906 61.085938 " fill-opacity="1" fill-rule="evenodd"/></g><path fill="#cb6ce6" d="M 42.941406 84.753906 C 42.742188 84.667969 42.429688 84.660156 42.289062 84.847656 C 42.21875 84.945312 42.148438 85.039062 42.101562 85.152344 C 42.050781 85.265625 41.988281 85.347656 41.910156 85.441406 C 41.875 85.558594 41.839844 85.664062 41.824219 85.785156 C 41.796875 85.964844 41.878906 86.09375 42.015625 86.199219 C 42.160156 86.320312 42.222656 86.460938 42.285156 86.632812 C 42.535156 86.816406 42.816406 86.441406 43.035156 86.332031 C 43.316406 86.160156 43.507812 85.902344 43.539062 85.570312 C 43.574219 85.207031 43.253906 84.890625 42.941406 84.753906 Z M 42.941406 84.753906 " fill-opacity="1" fill-rule="evenodd"/><path fill="#cb6ce6" d="M 71.839844 91.023438 C 71.53125 90.886719 71.203125 91.003906 71.074219 91.300781 C 70.921875 91.65625 71.101562 91.878906 71.285156 92.15625 C 71.34375 92.34375 71.625 92.59375 71.800781 92.667969 C 72.054688 92.777344 72.339844 92.65625 72.417969 92.390625 C 72.5 92.125 72.617188 91.726562 72.523438 91.453125 C 72.441406 91.203125 72.058594 91.125 71.839844 91.023438 Z M 71.839844 91.023438 " fill-opacity="1" fill-rule="evenodd"/><path fill="#cb6ce6" d="M 53.210938 96.308594 L 52.984375 96.234375 L 52.867188 96.226562 C 52.628906 96.203125 52.503906 96.394531 52.421875 96.585938 C 52.285156 96.914062 52.253906 97.320312 52.390625 97.652344 C 52.519531 97.753906 52.664062 97.742188 52.824219 97.726562 C 52.992188 97.710938 53.058594 97.722656 53.183594 97.78125 C 53.445312 97.898438 53.746094 97.847656 53.765625 97.523438 C 53.785156 97.214844 53.703125 96.914062 53.636719 96.617188 C 53.609375 96.574219 53.582031 96.53125 53.554688 96.488281 C 53.453125 96.398438 53.339844 96.347656 53.210938 96.308594 Z M 53.210938 96.308594 " fill-opacity="1" fill-rule="evenodd"/><path fill="#cb6ce6" d="M 5.027344 81.570312 C 4.765625 81.371094 4.566406 81.714844 4.332031 81.804688 C 4.195312 81.859375 4.078125 81.96875 4.019531 82.105469 C 3.902344 82.371094 3.78125 82.859375 4.132812 82.972656 C 4.382812 83.058594 4.734375 83.167969 4.992188 83.0625 C 5.289062 82.933594 5.285156 82.683594 5.316406 82.375 C 5.335938 82.152344 5.34375 81.941406 5.332031 81.902344 C 5.28125 81.75 5.152344 81.664062 5.027344 81.570312 Z M 5.027344 81.570312 " fill-opacity="1" fill-rule="evenodd"/><path fill="#cb6ce6" d="M 66.816406 90.011719 C 66.613281 89.925781 66.445312 90.082031 66.265625 90.164062 C 65.898438 90.332031 65.730469 90.8125 65.859375 91.199219 C 65.980469 91.554688 66.542969 91.453125 66.808594 91.34375 C 67.171875 91.191406 67.5 90.738281 67.199219 90.371094 C 67.148438 90.308594 67.132812 90.28125 67.128906 90.257812 C 67.113281 90.164062 66.890625 90.046875 66.816406 90.011719 Z M 66.816406 90.011719 " fill-opacity="1" fill-rule="evenodd"/><path fill="#cb6ce6" d="M 17.570312 85.625 C 17.335938 85.445312 17.074219 85.695312 16.851562 85.785156 C 16.578125 85.894531 16.554688 86.242188 16.726562 86.453125 C 16.769531 86.503906 16.792969 86.542969 16.796875 86.554688 C 16.839844 86.804688 17.214844 86.914062 17.414062 86.914062 C 17.632812 86.914062 17.902344 86.765625 17.988281 86.566406 C 18.152344 86.191406 17.847656 85.835938 17.570312 85.625 Z M 17.570312 85.625 " fill-opacity="1" fill-rule="evenodd"/><path fill="#cb6ce6" d="M 23.683594 5.042969 C 23.578125 4.9375 23.410156 4.820312 23.253906 4.886719 C 22.828125 5.0625 23.179688 5.679688 23.148438 6.015625 C 23.140625 6.128906 23.144531 6.257812 23.164062 6.300781 C 23.246094 6.492188 23.507812 6.363281 23.644531 6.316406 C 24.039062 6.179688 24.148438 5.628906 23.886719 5.308594 C 23.847656 5.261719 23.820312 5.226562 23.8125 5.164062 Z M 23.683594 5.042969 " fill-opacity="1" fill-rule="evenodd"/><path fill="#cb6ce6" d="M 45.875 82.546875 C 45.683594 82.40625 45.277344 82.503906 45.078125 82.589844 C 44.964844 82.710938 44.820312 82.78125 44.664062 82.835938 C 44.445312 82.910156 44.425781 83.179688 44.644531 83.269531 C 45.023438 83.421875 45.53125 83.398438 45.867188 83.144531 C 46.023438 83.03125 46.035156 82.664062 45.875 82.546875 Z M 45.875 82.546875 " fill-opacity="1" fill-rule="evenodd"/><path fill="#cb6ce6" d="M 17.113281 81.515625 C 16.886719 81.328125 16.679688 81.613281 16.542969 81.753906 C 16.421875 81.878906 16.316406 82.019531 16.304688 82.070312 C 16.242188 82.320312 16.53125 82.589844 16.765625 82.609375 C 16.988281 82.632812 17.121094 82.496094 17.207031 82.300781 C 17.289062 82.117188 17.285156 81.660156 17.113281 81.515625 Z M 17.113281 81.515625 " fill-opacity="1" fill-rule="evenodd"/><path fill="#cb6ce6" d="M 87.746094 93.898438 C 87.433594 93.761719 87.195312 93.976562 87.175781 94.28125 C 87.164062 94.457031 87.171875 94.835938 87.414062 94.875 C 87.660156 94.914062 87.957031 94.726562 88.054688 94.503906 C 88.164062 94.253906 87.96875 93.996094 87.746094 93.898438 Z M 87.746094 93.898438 " fill-opacity="1" fill-rule="evenodd"/><path fill="#cb6ce6" d="M 69.210938 79.003906 C 68.851562 78.839844 68.53125 79.085938 68.53125 79.46875 C 68.53125 79.914062 69.253906 79.871094 69.453125 79.59375 C 69.613281 79.375 69.425781 79.101562 69.210938 79.003906 Z M 69.210938 79.003906 " fill-opacity="1" fill-rule="evenodd"/><path fill="#cb6ce6" d="M 4.492188 38.328125 C 4.402344 38.191406 4.140625 38.257812 4.035156 38.335938 C 3.898438 38.667969 4.144531 38.910156 4.371094 39.101562 C 4.460938 39.175781 4.867188 39.359375 4.867188 39.097656 C 4.867188 38.839844 4.628906 38.539062 4.492188 38.328125 Z M 4.492188 38.328125 " fill-opacity="1" fill-rule="evenodd"/><path fill="#cb6ce6" d="M 22.128906 7.199219 C 21.949219 7.042969 21.558594 7.066406 21.507812 7.34375 C 21.464844 7.574219 21.800781 7.882812 21.996094 7.949219 C 22.105469 7.988281 22.160156 7.929688 22.242188 7.867188 C 22.4375 7.710938 22.269531 7.328125 22.128906 7.199219 Z M 22.128906 7.199219 " fill-opacity="1" fill-rule="evenodd"/><path fill="#cb6ce6" d="M 47.363281 2.992188 C 47.210938 2.863281 46.832031 2.851562 46.746094 3.0625 C 46.675781 3.230469 46.78125 3.378906 46.867188 3.519531 C 46.953125 3.597656 47.191406 3.789062 47.320312 3.691406 C 47.527344 3.53125 47.582031 3.175781 47.363281 2.992188 Z M 47.363281 2.992188 " fill-opacity="1" fill-rule="evenodd"/><path fill="#cb6ce6" d="M 98.9375 56 C 98.773438 55.847656 98.492188 55.953125 98.316406 56.023438 C 98.09375 56.113281 97.925781 56.351562 98.179688 56.539062 C 98.449219 56.734375 98.667969 56.492188 98.859375 56.320312 C 98.949219 56.238281 99.050781 56.101562 98.9375 56 Z M 98.9375 56 " fill-opacity="1" fill-rule="evenodd"/><path fill="#cb6ce6" d="M 2.160156 23.867188 C 1.988281 23.714844 1.851562 23.75 1.792969 23.941406 C 1.742188 24.117188 1.816406 24.371094 1.964844 24.484375 C 2.085938 24.582031 2.171875 24.511719 2.269531 24.429688 C 2.453125 24.28125 2.292969 23.984375 2.160156 23.867188 Z M 2.160156 23.867188 " fill-opacity="1" fill-rule="evenodd"/><path fill="#cb6ce6" d="M 3.628906 41.117188 C 3.40625 40.90625 3.144531 41.101562 3.3125 41.363281 C 3.484375 41.628906 3.867188 41.34375 3.628906 41.117188 Z M 3.628906 41.117188 " fill-opacity="1" fill-rule="evenodd"/><path fill="#cb6ce6" d="M 48.320312 5.539062 C 48.273438 5.441406 48.101562 5.433594 48.039062 5.523438 C 47.957031 5.636719 47.9375 5.914062 48.117188 5.957031 C 48.34375 6.011719 48.398438 5.691406 48.320312 5.539062 Z M 48.320312 5.539062 " fill-opacity="1" fill-rule="evenodd"/></g></g></g></g><g clip-path="url(#0722357f2a)"><path fill="#000000" d="M 0.820312 0.355469 C 1.363281 0.117188 1.960938 0.0703125 2.539062 0.0351562 C 3.3125 0.0195312 4.089844 0 4.859375 0.0625 C 6.488281 0.265625 8.070312 0.714844 9.640625 1.179688 C 14.046875 2.539062 18.296875 4.335938 22.511719 6.1875 C 27.703125 8.515625 32.8125 11.019531 37.84375 13.675781 C 39.09375 14.34375 40.359375 14.992188 41.570312 15.726562 C 37.285156 13.78125 32.972656 11.894531 28.648438 10.042969 C 25.082031 8.523438 21.5 7.039062 17.878906 5.652344 C 14.304688 4.308594 10.714844 2.980469 6.996094 2.09375 C 5.609375 1.796875 4.195312 1.523438 2.769531 1.628906 C 5.023438 2.863281 7.316406 4.0625 9.320312 5.691406 C 12.058594 7.851562 14.363281 10.71875 15.316406 14.121094 C 18.40625 25.535156 21.402344 36.980469 24.175781 48.476562 C 24.453125 49.644531 24.742188 50.8125 24.984375 51.988281 C 21.5 41.125 18.246094 30.183594 15.09375 19.21875 C 14.625 17.605469 14.171875 15.992188 13.691406 14.382812 C 12.820312 11.558594 10.902344 9.164062 8.636719 7.320312 C 6.925781 5.917969 5.027344 4.769531 3.082031 3.722656 C 2.339844 3.3125 1.574219 2.9375 0.875 2.457031 C 0.503906 2.195312 0.140625 1.816406 0.144531 1.332031 C 0.136719 0.902344 0.445312 0.527344 0.820312 0.355469 Z M 0.820312 0.355469 " fill-opacity="1" fill-rule="nonzero"/></g><path fill="#000000" d="M 28.40625 12.492188 C 28.304688 12.414062 28.296875 12.320312 28.382812 12.203125 C 35.519531 16.90625 42.460938 21.910156 49.175781 27.203125 C 52.164062 29.570312 55.082031 32.019531 57.917969 34.5625 C 60.847656 37.207031 63.683594 39.960938 66.265625 42.949219 C 67.503906 44.398438 68.679688 45.902344 69.710938 47.507812 C 70.621094 48.980469 71.5 50.472656 72.476562 51.902344 C 75.464844 56.335938 78.910156 60.4375 82.03125 64.777344 C 84.40625 68.074219 86.582031 71.527344 88.371094 75.179688 C 91.59375 81.730469 93.40625 88.992188 93.519531 96.300781 C 93.46875 96.300781 93.367188 96.308594 93.316406 96.308594 C 92.632812 91.632812 91.523438 87 89.808594 82.589844 C 88.246094 78.542969 86.199219 74.691406 83.835938 71.058594 C 79.539062 64.410156 74.386719 58.351562 70.261719 51.589844 C 69.515625 50.394531 68.859375 49.144531 68.117188 47.945312 C 65.910156 44.519531 63.15625 41.496094 60.316406 38.589844 C 57.355469 35.617188 54.25 32.792969 51.0625 30.058594 C 43.808594 23.835938 36.203125 18.019531 28.40625 12.492188 Z M 28.40625 12.492188 " fill-opacity="1" fill-rule="nonzero"/><path fill="#000000" d="M 48.628906 45.222656 C 48.933594 44.992188 49.253906 44.78125 49.566406 44.5625 C 57.113281 55.503906 64.507812 66.554688 71.691406 77.742188 C 76.054688 84.554688 80.339844 91.414062 84.40625 98.40625 C 86.441406 101.921875 88.421875 105.472656 90.238281 109.109375 C 92.230469 113.164062 94.03125 117.308594 95.761719 121.480469 C 99.027344 129.375 102.011719 137.378906 105.027344 145.371094 C 105.179688 145.753906 105.070312 146.214844 105.339844 146.554688 C 105.722656 146.972656 105.820312 147.546875 106.042969 148.054688 C 106.71875 149.835938 107.398438 151.617188 108.09375 153.394531 C 109.507812 153.359375 110.925781 153.324219 112.328125 153.167969 C 111.371094 151.089844 110.476562 148.980469 109.515625 146.90625 C 109.335938 146.582031 109.398438 146.191406 109.222656 145.867188 C 109.109375 145.628906 108.871094 145.480469 108.761719 145.246094 C 105.871094 138.9375 102.910156 132.660156 99.917969 126.398438 C 99.203125 124.910156 98.511719 123.414062 97.707031 121.972656 C 89.847656 107.320312 81.980469 92.671875 74.132812 78.011719 C 74.464844 77.839844 74.792969 77.65625 75.128906 77.488281 C 83.257812 92.628906 91.375 107.773438 99.5 122.917969 C 102.296875 128.707031 105.042969 134.519531 107.753906 140.347656 C 108.617188 142.183594 109.433594 144.035156 110.304688 145.863281 C 113.058594 145.980469 115.808594 146.277344 118.519531 146.773438 C 120.28125 147.125 122.050781 147.53125 123.6875 148.300781 C 124.34375 148.628906 124.996094 149.03125 125.371094 149.6875 C 124.757812 148.816406 123.761719 148.390625 122.800781 148.039062 C 120.925781 147.382812 118.960938 147.050781 117 146.777344 C 114.835938 146.515625 112.660156 146.335938 110.480469 146.300781 C 111.515625 148.546875 112.519531 150.8125 113.503906 153.082031 C 116.09375 152.832031 118.683594 152.457031 121.191406 151.738281 C 122.0625 151.46875 122.941406 151.175781 123.730469 150.707031 C 124.011719 150.515625 124.351562 150.320312 124.449219 149.972656 C 124.746094 150 125.046875 150.035156 125.34375 150.082031 C 125.34375 149.902344 125.347656 149.722656 125.359375 149.546875 C 125.367188 149.722656 125.371094 149.902344 125.375 150.082031 C 125.71875 150.105469 126.0625 150.136719 126.402344 150.191406 C 126.351562 150.835938 125.992188 151.417969 125.503906 151.828125 C 124.699219 152.511719 123.695312 152.894531 122.707031 153.230469 C 119.953125 154.097656 117.066406 154.453125 114.199219 154.691406 C 114.964844 156.605469 115.828125 158.492188 116.367188 160.488281 C 116.585938 161.738281 116.746094 163.003906 116.789062 164.273438 C 116.757812 164.972656 116.71875 165.773438 116.171875 166.28125 C 115.664062 166.765625 114.882812 166.695312 114.273438 166.46875 C 113.558594 166.191406 112.816406 165.855469 112.34375 165.222656 C 111.6875 164.378906 111.195312 163.417969 110.714844 162.464844 C 109.523438 160.007812 108.480469 157.476562 107.492188 154.929688 C 102.753906 154.800781 97.96875 154.503906 93.371094 153.269531 C 92.246094 152.953125 91.125 152.578125 90.121094 151.984375 C 89.554688 151.628906 88.972656 151.171875 88.78125 150.503906 C 88.589844 149.886719 88.890625 149.230469 89.347656 148.816406 C 90.109375 148.121094 91.097656 147.746094 92.0625 147.421875 C 94.542969 146.628906 97.136719 146.292969 99.71875 146.03125 C 101.136719 145.929688 102.554688 145.808594 103.976562 145.789062 C 100.710938 137.152344 97.492188 128.492188 93.90625 119.980469 C 92.3125 116.222656 90.667969 112.484375 88.832031 108.835938 C 86.890625 105.019531 84.777344 101.285156 82.613281 97.585938 C 78.066406 89.851562 73.273438 82.261719 68.398438 74.726562 C 61.953125 64.796875 55.371094 54.953125 48.628906 45.222656 M 97.828125 147 C 95.828125 147.324219 93.828125 147.707031 91.933594 148.433594 C 91.195312 148.738281 90.414062 149.058594 89.886719 149.683594 C 89.691406 149.902344 89.679688 150.234375 89.878906 150.453125 C 90.257812 150.90625 90.804688 151.171875 91.335938 151.410156 C 92.535156 151.925781 93.816406 152.226562 95.09375 152.492188 C 97.464844 152.9375 99.875 153.210938 102.285156 153.300781 L 102.355469 153.339844 C 103.863281 153.371094 105.375 153.453125 106.882812 153.40625 C 105.96875 151.074219 105.085938 148.730469 104.195312 146.386719 C 102.0625 146.464844 99.9375 146.691406 97.828125 147 M 108.699219 154.917969 C 109.851562 157.761719 110.972656 160.632812 112.449219 163.328125 C 112.875 164.003906 113.257812 164.8125 114.042969 165.132812 C 114.46875 165.308594 114.953125 165.640625 115.421875 165.441406 C 115.734375 164.898438 115.652344 164.230469 115.636719 163.628906 C 115.558594 162.867188 115.484375 162.105469 115.367188 161.347656 C 115.296875 160.613281 115.023438 159.921875 114.785156 159.230469 C 114.289062 157.859375 113.726562 156.511719 113.164062 155.167969 C 113.09375 155.027344 113.066406 154.859375 112.941406 154.765625 C 111.53125 154.886719 110.113281 154.890625 108.699219 154.917969 Z M 108.699219 154.917969 " fill-opacity="1" fill-rule="nonzero"/><path fill="#000000" d="M 25.484375 51.410156 C 25.699219 51.410156 25.921875 51.40625 26.136719 51.453125 C 30.730469 52.429688 35.277344 53.722656 39.625 55.519531 C 41.441406 56.3125 43.277344 57.148438 44.8125 58.421875 C 45.390625 58.925781 46.058594 59.601562 45.890625 60.445312 C 45.710938 61.207031 44.910156 61.546875 44.21875 61.695312 C 42.445312 62.058594 40.617188 61.949219 38.824219 61.839844 C 35.003906 61.539062 31.207031 60.9375 27.476562 60.070312 C 32.03125 60.269531 36.585938 60.710938 41.152344 60.636719 C 42.269531 60.542969 43.449219 60.601562 44.492188 60.121094 C 43.859375 59.363281 43.015625 58.832031 42.179688 58.328125 C 40.679688 57.460938 39.101562 56.738281 37.515625 56.046875 C 33.855469 54.472656 30.113281 53.113281 26.394531 51.691406 C 26.101562 51.5625 25.796875 51.472656 25.484375 51.410156 Z M 25.484375 51.410156 " fill-opacity="1" fill-rule="nonzero"/><path fill="#000000" d="M 29.207031 61.722656 C 31.847656 67.675781 33.859375 73.882812 36.269531 79.929688 C 36.976562 81.628906 37.667969 83.355469 38.6875 84.898438 C 38.816406 85.15625 39.152344 85.089844 39.386719 85.160156 C 42.835938 85.84375 46.246094 86.796875 49.480469 88.183594 C 50.835938 88.792969 52.203125 89.453125 53.316406 90.453125 C 53.742188 90.863281 54.195312 91.375 54.128906 92.011719 C 54.101562 92.601562 53.574219 93.011719 53.058594 93.195312 C 52 93.550781 50.867188 93.554688 49.761719 93.550781 C 47.160156 93.503906 44.585938 93.105469 42.027344 92.664062 C 43.425781 94.398438 44.792969 96.164062 46.257812 97.847656 C 49.070312 101.15625 52.0625 104.316406 55.289062 107.226562 C 57 108.730469 58.769531 110.171875 60.644531 111.472656 C 62.519531 112.734375 64.484375 113.859375 66.503906 114.867188 C 70.535156 116.921875 74.738281 118.613281 78.984375 120.160156 C 82.113281 121.296875 85.269531 122.335938 88.449219 123.320312 C 88.996094 123.480469 89.535156 123.683594 90.101562 123.769531 C 89.550781 123.8125 89.011719 123.660156 88.472656 123.585938 C 83.632812 122.726562 78.875 121.457031 74.226562 119.867188 C 70.238281 118.460938 66.320312 116.828125 62.640625 114.730469 C 58.902344 112.582031 55.5625 109.792969 52.5625 106.707031 C 48.460938 102.46875 44.878906 97.722656 41.921875 92.617188 C 41.269531 92.496094 40.625 92.328125 39.972656 92.199219 C 41.34375 92.144531 42.714844 92.257812 44.082031 92.265625 C 46.226562 92.300781 48.371094 92.367188 50.511719 92.246094 C 51.203125 92.171875 51.910156 92.121094 52.578125 91.894531 C 52.605469 91.78125 52.574219 91.691406 52.480469 91.628906 C 51.589844 90.773438 50.476562 90.207031 49.390625 89.644531 C 46.171875 88.0625 42.804688 86.8125 39.480469 85.464844 C 39.179688 85.335938 38.84375 85.285156 38.566406 85.097656 C 37.429688 84.078125 36.492188 82.855469 35.703125 81.550781 C 33.714844 78.25 32.324219 74.625 31.183594 70.957031 C 30.363281 68.265625 29.703125 65.519531 29.292969 62.734375 C 29.238281 62.398438 29.191406 62.0625 29.207031 61.722656 Z M 29.207031 61.722656 " fill-opacity="1" fill-rule="nonzero"/><path fill="#000000" d="M 101.140625 77.9375 C 101.636719 77.769531 102.105469 78.277344 102.117188 78.75 C 102.402344 81.6875 102.511719 84.640625 102.558594 87.589844 C 102.578125 90.441406 102.585938 93.292969 102.417969 96.136719 C 102.269531 98.757812 102.035156 101.386719 101.503906 103.960938 C 101.207031 105.207031 100.917969 106.503906 100.164062 107.566406 C 100.679688 106.386719 100.824219 105.09375 100.949219 103.824219 C 101.191406 101.089844 101.148438 98.335938 101.148438 95.59375 C 101.113281 93.691406 101.054688 91.796875 101.027344 89.894531 L 100.984375 89.824219 C 100.96875 88.378906 100.882812 86.9375 100.824219 85.496094 C 99.238281 89.292969 96.980469 92.765625 94.476562 96.011719 C 93.859375 96.796875 93.234375 97.574219 92.5625 98.3125 C 94.894531 94.46875 97.1875 90.578125 98.90625 86.414062 C 99.613281 84.628906 100.265625 82.789062 100.4375 80.863281 C 100.5 80.117188 100.417969 79.367188 100.449219 78.617188 C 100.5625 78.308594 100.84375 78.070312 101.140625 77.9375 Z M 101.140625 77.9375 " fill-opacity="1" fill-rule="nonzero"/><path fill="#000000" d="M 105.242188 94.242188 C 105.40625 93.988281 105.640625 93.761719 105.925781 93.660156 C 106.332031 93.53125 106.710938 93.882812 106.839844 94.242188 C 106.925781 94.726562 106.957031 95.21875 106.976562 95.714844 L 107.015625 95.78125 C 107.328125 100.9375 107.472656 106.117188 107.203125 111.28125 C 107.078125 113.980469 106.847656 116.683594 106.335938 119.339844 C 106.144531 120.269531 105.917969 121.195312 105.578125 122.078125 C 105.398438 122.507812 105.207031 122.945312 104.898438 123.300781 C 105.335938 122.460938 105.457031 121.503906 105.601562 120.582031 C 105.96875 117.464844 105.917969 114.320312 105.902344 111.1875 C 105.875 108.800781 105.816406 106.410156 105.699219 104.027344 C 105.667969 103.082031 105.671875 102.128906 105.5625 101.1875 C 105.308594 102.015625 104.886719 102.777344 104.511719 103.550781 C 103.503906 105.5625 102.308594 107.476562 101.023438 109.320312 C 99.871094 110.949219 98.675781 112.550781 97.328125 114.023438 C 99.585938 110.332031 101.777344 106.585938 103.480469 102.601562 C 104.347656 100.46875 105.179688 98.25 105.234375 95.917969 C 105.269531 95.359375 105.117188 94.792969 105.242188 94.242188 Z M 105.242188 94.242188 " fill-opacity="1" fill-rule="nonzero"/><path fill="#000000" d="M 112.144531 112.851562 C 112.332031 112.179688 113.410156 112.113281 113.65625 112.777344 C 113.9375 113.632812 113.675781 114.542969 113.507812 115.394531 C 113.144531 120.164062 112.722656 124.957031 111.605469 129.621094 C 111.226562 130.996094 110.898438 132.445312 110.050781 133.617188 C 110.414062 132.492188 110.554688 131.3125 110.691406 130.140625 C 110.945312 127.4375 111.121094 124.730469 111.304688 122.023438 C 111.375 121.066406 111.453125 120.109375 111.496094 119.152344 C 110.253906 120.929688 108.789062 122.558594 107.167969 123.996094 C 108.84375 121.402344 110.636719 118.835938 111.738281 115.929688 C 111.925781 114.914062 111.878906 113.855469 112.144531 112.851562 Z M 112.144531 112.851562 " fill-opacity="1" fill-rule="nonzero"/><path fill="#000000" d="M 76.328125 125.660156 C 76.316406 125.292969 76.394531 124.871094 76.71875 124.652344 C 77.046875 124.539062 77.386719 124.675781 77.652344 124.875 C 79.277344 126.066406 81.183594 126.769531 83.050781 127.480469 C 86.800781 128.859375 90.632812 130.011719 94.441406 131.214844 C 95.234375 131.4375 96 131.753906 96.808594 131.914062 C 95.703125 131.898438 94.621094 131.617188 93.53125 131.449219 C 89.710938 130.726562 85.917969 129.832031 82.226562 128.601562 C 85.433594 131.0625 88.628906 133.546875 91.949219 135.851562 C 92.53125 136.269531 93.15625 136.628906 93.730469 137.0625 C 91.589844 136.160156 89.566406 135 87.59375 133.78125 C 84.296875 131.730469 81.113281 129.492188 78.046875 127.113281 C 77.464844 126.636719 76.851562 126.203125 76.328125 125.660156 Z M 76.328125 125.660156 " fill-opacity="1" fill-rule="nonzero"/><path fill="#000000" d="M 81.738281 133.378906 C 82.15625 133.1875 82.582031 133.476562 82.910156 133.722656 C 84.585938 134.898438 86.535156 135.589844 88.4375 136.308594 C 92.140625 137.660156 95.921875 138.792969 99.679688 139.980469 C 100.417969 140.1875 101.132812 140.480469 101.886719 140.625 C 101.3125 140.65625 100.753906 140.511719 100.191406 140.4375 C 96.460938 139.808594 92.765625 138.976562 89.140625 137.898438 C 88.511719 137.742188 87.917969 137.449219 87.28125 137.351562 C 87.347656 137.386719 87.480469 137.460938 87.550781 137.5 C 90.671875 139.933594 93.816406 142.34375 97.066406 144.601562 C 97.644531 144.972656 98.183594 145.414062 98.8125 145.703125 C 97.980469 145.511719 97.242188 145.035156 96.472656 144.683594 C 92.757812 142.730469 89.277344 140.367188 85.875 137.914062 C 84.351562 136.769531 82.78125 135.667969 81.378906 134.371094 C 81.363281 134.015625 81.4375 133.613281 81.738281 133.378906 Z M 81.738281 133.378906 " fill-opacity="1" fill-rule="nonzero"/><g clip-path="url(#f62c90b71c)"><path fill="#000000" d="M 118.632812 155.238281 C 121.082031 158.148438 123.394531 161.171875 125.652344 164.234375 C 128.128906 167.625 130.527344 171.074219 132.742188 174.644531 C 134.46875 177.429688 136.113281 180.269531 137.5 183.238281 C 138.542969 185.484375 139.484375 187.804688 139.945312 190.246094 C 140.113281 191.09375 140.042969 191.960938 140.058594 192.820312 C 140.085938 194.550781 138.980469 196.246094 137.375 196.90625 C 135.871094 197.550781 134.25 197.867188 132.652344 198.175781 C 129.28125 198.78125 125.875 199.125 122.464844 199.394531 C 117.839844 199.722656 113.207031 199.972656 108.570312 199.957031 C 104.144531 199.933594 99.710938 200.035156 95.292969 199.761719 C 92.707031 199.652344 90.128906 199.4375 87.558594 199.140625 C 85.199219 198.839844 82.832031 198.503906 80.558594 197.804688 C 79.503906 197.453125 78.382812 197.0625 77.625 196.207031 C 77.035156 195.550781 77.046875 194.605469 77.015625 193.777344 C 77.035156 191.488281 77.75 189.277344 78.523438 187.148438 C 80.070312 183.050781 82.148438 179.175781 84.324219 175.378906 C 86.347656 171.875 88.519531 168.457031 90.769531 165.09375 C 92.632812 162.320312 94.546875 159.578125 96.550781 156.910156 C 92.074219 163.933594 87.734375 171.0625 83.945312 178.488281 C 82.859375 180.640625 81.832031 182.820312 80.914062 185.050781 C 80.132812 186.96875 79.417969 188.917969 78.972656 190.945312 C 78.710938 192.207031 78.511719 193.527344 78.769531 194.8125 C 78.832031 195.164062 79.183594 195.347656 79.464844 195.519531 C 80.40625 196.015625 81.453125 196.277344 82.488281 196.515625 C 85.320312 197.121094 88.210938 197.390625 91.09375 197.605469 C 95.582031 197.917969 100.078125 198.066406 104.574219 198.042969 C 109.457031 198.0625 114.335938 197.917969 119.210938 197.679688 C 122.851562 197.453125 126.492188 197.175781 130.113281 196.714844 C 132.0625 196.441406 134.023438 196.160156 135.910156 195.582031 C 136.484375 195.382812 137.101562 195.199219 137.53125 194.742188 C 138.035156 194.273438 138.3125 193.609375 138.394531 192.933594 C 138.621094 191.195312 138.175781 189.464844 137.683594 187.808594 C 136.683594 184.652344 135.214844 181.671875 133.683594 178.746094 C 131.714844 175.035156 129.515625 171.453125 127.261719 167.910156 C 124.5 163.609375 121.609375 159.394531 118.632812 155.238281 Z M 118.632812 155.238281 " fill-opacity="1" fill-rule="nonzero"/></g><path fill="#000000" d="M 109.871094 175.164062 C 111.402344 175.175781 112.949219 174.960938 114.46875 175.222656 C 116.539062 175.550781 118.585938 176.027344 120.5625 176.722656 C 121.503906 177.078125 122.484375 177.441406 123.234375 178.136719 C 123.605469 178.46875 123.621094 178.984375 123.597656 179.449219 C 123.59375 181.835938 123.601562 184.222656 123.597656 186.609375 C 123.597656 187.25 123.46875 187.898438 123.148438 188.457031 C 122.546875 189.5625 121.308594 190.292969 120.050781 190.257812 C 111.3125 190.253906 102.578125 190.257812 93.84375 190.253906 C 92.09375 190.234375 90.519531 188.6875 90.492188 186.929688 C 90.492188 184.257812 90.492188 181.582031 90.492188 178.910156 C 90.460938 178.414062 90.898438 178.074219 91.269531 177.832031 C 92.207031 177.257812 93.269531 176.933594 94.320312 176.628906 C 96.46875 176.046875 98.664062 175.628906 100.875 175.402344 C 103.875 175.296875 106.871094 175.238281 109.871094 175.164062 Z M 109.871094 175.164062 " fill-opacity="1" fill-rule="nonzero"/></svg>